<svg width="90" height="80" viewBox="0 0 90 80" fill="none" xmlns="http://www.w3.org/2000/svg">
<path d="M82.7305 7.42706C78.0177 2.66217 71.7786 0.0578734 65.1197 0.0578734C58.4609 0.0578734 52.2027 2.68146 47.4899 7.44635L45.0286 9.93489L42.5292 7.40777C37.8164 2.64287 31.5391 0 24.8803 0C18.2405 0 11.9823 2.62358 7.28862 7.36918C2.57589 12.1341 -0.0189754 18.4615 0.000104476 25.1941C0.000104476 31.9267 2.61405 38.2349 7.32678 42.9998L43.1588 79.2284C43.6549 79.7299 44.3227 80 44.9714 80C45.6201 80 46.2879 79.7492 46.784 79.2477L82.6923 43.0769C87.405 38.312 89.9999 31.9846 89.9999 25.252C90.019 18.5194 87.4432 12.1919 82.7305 7.42706ZM79.0671 39.3923L44.9714 73.7304L10.952 39.3345C7.2123 35.5534 5.15167 30.5377 5.15167 25.1941C5.15167 19.8505 7.19322 14.8348 10.9329 11.0731C14.6535 7.31131 19.6142 5.22788 24.8803 5.22788C30.1654 5.22788 35.1452 7.31131 38.8849 11.0924L43.197 15.4521C44.2082 16.4746 45.83 16.4746 46.8412 15.4521L51.1151 11.1309C54.8548 7.34989 59.8346 5.26646 65.1007 5.26646C70.3667 5.26646 75.3275 7.34989 79.0671 11.1116C82.8068 14.8927 84.8483 19.9084 84.8483 25.252C84.8674 30.5956 82.8068 35.6113 79.0671 39.3923Z" fill="black"/>
</svg>
