<svg width="321" height="94" viewBox="0 0 321 94" fill="none" xmlns="http://www.w3.org/2000/svg">
<path d="M318.134 91.9116L321 1.53564C320.051 1.38097 318.815 1.23164 317.283 1.09564C315.739 0.958312 313.894 0.832975 311.751 0.726309C309.59 0.619643 307.127 0.531645 304.356 0.462312C301.574 0.395645 298.496 0.351635 295.118 0.335635C291.461 0.319635 287.478 0.332971 283.176 0.387637C278.889 0.443637 274.31 0.534303 269.457 0.668968C264.651 0.799634 259.603 0.971641 254.34 1.19031C249.163 1.40631 243.81 1.66231 238.313 1.96365C231.54 2.33431 225.285 2.73697 219.479 3.15697C213.845 3.5623 208.648 3.98231 203.804 4.40631C199.116 4.8183 194.762 5.22898 190.657 5.63298C186.684 6.02631 182.941 6.40898 179.348 6.78098C176.168 7.10765 173.116 7.4223 170.125 7.71964C167.213 8.00497 164.35 8.27698 161.478 8.52631C158.672 8.77164 155.848 8.99565 152.936 9.19831C150.084 9.39565 147.137 9.5703 144.041 9.72097C139.82 9.92497 135.494 10.0997 131.117 10.2423C126.804 10.385 122.413 10.4996 117.993 10.5863C113.613 10.6716 109.18 10.7303 104.738 10.765C100.316 10.797 95.8571 10.805 91.4077 10.785C88.9104 10.7743 86.4077 10.7583 83.9077 10.729C81.4064 10.701 78.9024 10.6663 76.4051 10.6223C73.8971 10.577 71.3944 10.5263 68.8971 10.4623C66.3931 10.401 63.8917 10.329 61.3997 10.2503C57.5264 10.1223 53.2331 9.9583 48.6944 9.7503C44.0691 9.53297 39.1478 9.26364 34.0904 8.93031C28.8811 8.58498 23.4597 8.1663 17.9851 7.65163C12.2637 7.11164 6.38374 6.4623 0.479736 5.66897L1.96643 80.5343C7.75843 79.029 13.5344 77.805 19.1651 76.7996C24.5584 75.841 29.8971 75.065 35.0384 74.4343C40.0304 73.8237 44.8904 73.3436 49.4584 72.9636C53.9464 72.5903 58.1904 72.3103 62.0251 72.1023C64.4864 71.9663 66.9624 71.8516 69.4411 71.7556C71.9118 71.657 74.3878 71.5783 76.8691 71.5156C79.3411 71.453 81.8198 71.409 84.2998 71.381C86.7731 71.3516 89.2504 71.3383 91.7251 71.3436C96.1317 71.3516 100.545 71.4116 104.924 71.5223C109.325 71.633 113.714 71.7956 118.05 72.0103C122.426 72.2263 126.772 72.4983 131.042 72.8236C135.376 73.1543 139.657 73.5423 143.832 73.9876C146.897 74.3183 149.806 74.6956 152.628 75.1143C155.501 75.5436 158.296 76.0156 161.068 76.529C163.905 77.0516 166.728 77.617 169.602 78.2143C172.55 78.829 175.56 79.4796 178.694 80.157C182.233 80.9236 185.916 81.721 189.832 82.5343C193.87 83.373 198.153 84.2303 202.766 85.0836C207.53 85.969 212.641 86.849 218.177 87.701C223.887 88.5836 230.03 89.4383 236.689 90.2357C242.084 90.8836 247.35 91.441 252.438 91.9143C257.608 92.3956 262.568 92.785 267.29 93.0943C272.061 93.405 276.564 93.6303 280.78 93.7783C285.016 93.9276 288.939 93.9983 292.54 93.9997C295.866 94.005 298.901 93.9503 301.644 93.8476C304.378 93.7436 306.81 93.5943 308.95 93.405C311.072 93.2183 312.899 92.993 314.431 92.7383C315.952 92.4877 317.183 92.2063 318.134 91.9116ZM320.637 12.9823C320.464 12.7476 320.379 12.2197 320.38 11.4063L320.525 6.84498C320.572 6.04231 320.691 5.53965 320.88 5.34898L320.637 12.9823ZM315.606 12.7196C315.157 12.6463 314.873 11.9823 314.88 11.0263L315.026 6.38365C315.074 5.43032 315.402 4.80365 315.85 4.78365C316.088 4.79965 316.323 4.81565 316.551 4.83298C316.78 4.84898 317.001 4.86765 317.22 4.88365C317.433 4.89965 317.643 4.91963 317.849 4.93563C318.052 4.95297 318.251 4.97164 318.441 4.98764C318.785 5.0663 318.991 5.71431 318.978 6.67698L318.832 11.269C318.788 12.2263 318.54 12.8383 318.196 12.865C318.003 12.8516 317.805 12.8383 317.603 12.8263C317.399 12.813 317.187 12.8023 316.97 12.789C316.756 12.777 316.533 12.7663 316.307 12.753C316.078 12.7396 315.845 12.729 315.606 12.7196ZM307.299 12.441C306.642 12.3783 306.212 11.7103 306.208 10.7423L306.343 6.04231C306.411 5.07831 306.875 4.4343 307.535 4.40364C307.892 4.4143 308.24 4.42497 308.584 4.4383C308.928 4.44764 309.261 4.45964 309.594 4.47164C309.925 4.48497 310.249 4.49831 310.567 4.51031C310.882 4.52098 311.194 4.53431 311.501 4.54898C312.051 4.62098 312.393 5.27298 312.392 6.24765L312.25 10.9143C312.193 11.8903 311.814 12.5156 311.259 12.5476C310.956 12.537 310.643 12.529 310.324 12.5183C310.006 12.5103 309.683 12.4996 309.354 12.493C309.025 12.4823 308.688 12.4743 308.345 12.465C308.003 12.4583 307.655 12.4503 307.299 12.441ZM295.793 12.2943C294.611 12.2183 294.506 10.9823 294.504 10.605L294.634 5.88365C294.682 5.10632 295.074 4.26098 296.017 4.21164C296.487 4.21164 296.95 4.21697 297.406 4.21964C297.862 4.22364 298.311 4.22631 298.756 4.23165C299.202 4.23831 299.639 4.24231 300.074 4.24898C300.508 4.25298 300.935 4.25832 301.357 4.26632C302.118 4.32765 302.598 4.97965 302.609 5.96365L302.472 10.6743C302.406 11.6623 301.889 12.297 301.123 12.3383C300.705 12.333 300.276 12.329 299.844 12.3236C299.413 12.321 298.976 12.3156 298.533 12.3116C298.084 12.309 297.637 12.305 297.181 12.3023C296.724 12.2983 296.261 12.2956 295.793 12.2943ZM285.827 12.289C285.154 12.2423 284.712 11.5863 284.701 10.6143L284.824 5.90364C284.883 4.93564 285.358 4.2743 286.038 4.21964C286.407 4.21697 286.775 4.21431 287.141 4.21164C287.505 4.21031 287.867 4.20897 288.226 4.20631C288.589 4.20631 288.944 4.20364 289.301 4.20364C289.656 4.20097 290.008 4.19965 290.357 4.19965C290.996 4.24898 291.396 4.89031 291.402 5.87564L291.275 10.597C291.216 11.5863 290.783 12.2316 290.141 12.281C289.79 12.281 289.44 12.281 289.088 12.281C288.728 12.281 288.373 12.2836 288.013 12.2836C287.656 12.2836 287.293 12.285 286.928 12.2863C286.564 12.2863 286.194 12.289 285.827 12.289ZM274.911 12.381C274.161 12.3383 273.666 11.693 273.652 10.729L273.765 6.05163C273.827 5.08897 274.354 4.42498 275.108 4.36231C275.517 4.35431 275.928 4.34764 276.334 4.34097C276.744 4.33297 277.15 4.3263 277.551 4.32097C277.955 4.31297 278.356 4.30765 278.758 4.30098C279.155 4.29432 279.551 4.28898 279.944 4.28365C280.661 4.32098 281.132 4.97164 281.142 5.93964L281.025 10.6436C280.962 11.613 280.462 12.277 279.744 12.329C279.35 12.3316 278.952 12.3357 278.555 12.341C278.156 12.3437 277.758 12.349 277.354 12.3516C276.952 12.357 276.545 12.361 276.141 12.365C275.733 12.3703 275.322 12.3743 274.911 12.381ZM262.923 12.5703C262.111 12.537 261.572 11.901 261.554 10.9503L261.656 6.33298C261.715 5.38365 262.285 4.72098 263.1 4.64898C263.545 4.63565 263.992 4.62231 264.432 4.61164C264.877 4.59964 265.319 4.58764 265.759 4.57431C266.196 4.56364 266.634 4.55164 267.072 4.53964C267.506 4.53031 267.941 4.51831 268.375 4.50764C269.157 4.53831 269.673 5.17432 269.69 6.13031L269.582 10.7943C269.515 11.769 268.983 12.4143 268.189 12.477C267.756 12.4823 267.324 12.4903 266.885 12.4983C266.452 12.505 266.015 12.513 265.577 12.5196C265.138 12.5263 264.696 12.537 264.254 12.545C263.813 12.553 263.368 12.5623 262.923 12.5703ZM250.107 12.865C249.247 12.8383 248.673 12.221 248.65 11.289L248.741 6.75831C248.804 5.82364 249.401 5.1663 250.267 5.0863C250.737 5.0663 251.207 5.05031 251.676 5.03165C252.144 5.01298 252.611 4.99831 253.077 4.97965C253.543 4.96098 254.009 4.94498 254.472 4.92898C254.936 4.91298 255.4 4.89565 255.861 4.88098C256.696 4.89831 257.251 5.51832 257.275 6.46365L257.175 11.0543C257.111 12.0156 256.544 12.657 255.694 12.7263C255.234 12.737 254.772 12.7463 254.309 12.7583C253.845 12.7716 253.382 12.781 252.914 12.7916C252.451 12.805 251.982 12.8156 251.511 12.829C251.047 12.841 250.577 12.8516 250.107 12.865ZM236.972 13.2556C236.247 13.2343 235.768 12.633 235.746 11.7196L235.827 7.29564C235.879 6.38365 236.384 5.74231 237.113 5.65964L237.393 5.64765L237.678 5.63298L237.961 5.61964L238.246 5.60631C238.618 5.58897 238.987 5.57164 239.358 5.5543C239.727 5.53564 240.1 5.5183 240.467 5.5023C240.838 5.48497 241.207 5.46898 241.577 5.45032C241.944 5.43565 242.314 5.41832 242.682 5.40098C243.554 5.41032 244.132 6.01297 244.159 6.93564L244.072 11.433C244.009 12.3743 243.421 13.005 242.537 13.0796C242.168 13.0916 241.799 13.1023 241.433 13.113C241.064 13.125 240.691 13.1356 240.327 13.149C239.957 13.1596 239.586 13.1716 239.215 13.1823C238.848 13.1956 238.476 13.209 238.106 13.2196L237.82 13.229L237.538 13.2397L237.256 13.2476L236.972 13.2556ZM226.304 13.6436C225.649 13.6223 225.212 13.037 225.194 12.1476L225.265 7.82364C225.311 6.93564 225.767 6.30764 226.425 6.22364C226.79 6.20364 227.156 6.18231 227.523 6.16231C227.892 6.14231 228.261 6.11965 228.633 6.10098C229.008 6.08098 229.38 6.05964 229.758 6.0383C230.132 6.0183 230.509 5.99831 230.889 5.97965C231.584 5.98765 232.045 6.57298 232.063 7.47431L231.987 11.865C231.935 12.7716 231.453 13.401 230.763 13.4743C230.379 13.4877 230.005 13.5023 229.628 13.5143C229.254 13.529 228.879 13.5436 228.506 13.557C228.138 13.573 227.769 13.5863 227.399 13.601C227.031 13.6143 226.667 13.6276 226.304 13.6436ZM216.657 14.0476C216.056 14.0316 215.674 13.4743 215.657 12.5916L215.717 8.37831C215.76 7.51031 216.17 6.89565 216.766 6.81298C217.096 6.79165 217.426 6.77165 217.758 6.74765C218.09 6.72898 218.425 6.70763 218.759 6.68497C219.096 6.66497 219.436 6.64364 219.772 6.61964C220.113 6.6023 220.452 6.57964 220.797 6.55831C221.425 6.56231 221.843 7.13432 221.861 8.01298L221.793 12.2983C221.749 13.1823 221.311 13.801 220.681 13.873C220.34 13.8877 219.999 13.901 219.659 13.9156C219.323 13.9303 218.982 13.945 218.65 13.961C218.314 13.9743 217.978 13.9877 217.649 14.005C217.317 14.0183 216.986 14.0343 216.657 14.0476ZM207.944 14.461C207.408 14.4463 207.049 13.8903 207.033 13.0476L207.09 8.94097C207.126 8.09431 207.498 7.49564 208.041 7.41164C208.34 7.39031 208.637 7.37031 208.936 7.34898C209.236 7.32765 209.54 7.30498 209.842 7.28365C210.144 7.26098 210.449 7.23963 210.757 7.2183C211.064 7.1983 211.374 7.17697 211.682 7.1543C212.249 7.15697 212.624 7.71431 212.642 8.57164L212.582 12.7476C212.538 13.6103 212.148 14.2143 211.581 14.2836C211.272 14.297 210.964 14.313 210.657 14.329C210.352 14.3436 210.045 14.357 209.744 14.373C209.441 14.3877 209.14 14.401 208.84 14.417C208.541 14.433 208.244 14.4463 207.944 14.461ZM200.053 14.8783C199.568 14.861 199.244 14.321 199.228 13.4996L199.278 9.50232C199.313 8.67699 199.652 8.09431 200.138 8.01298C200.409 7.99298 200.681 7.97165 200.95 7.94765C201.222 7.92765 201.498 7.9063 201.772 7.8863C202.049 7.8623 202.324 7.84097 202.602 7.82097C202.88 7.7983 203.162 7.77697 203.44 7.75697C203.953 7.75964 204.294 8.29965 204.309 9.13432L204.257 13.2037C204.218 14.0436 203.866 14.6303 203.353 14.701C203.074 14.7143 202.793 14.729 202.514 14.7436C202.236 14.7583 201.961 14.7743 201.686 14.7863C201.412 14.805 201.137 14.8183 200.866 14.833C200.594 14.849 200.324 14.861 200.053 14.8783ZM192.878 15.285C192.433 15.2716 192.14 14.7436 192.125 13.9436L192.168 10.053C192.202 9.24764 192.508 8.67963 192.952 8.6023C193.201 8.58097 193.444 8.55964 193.693 8.54097C193.944 8.51831 194.192 8.49831 194.442 8.47698C194.694 8.45564 194.944 8.43565 195.2 8.41431C195.453 8.39298 195.708 8.37297 195.962 8.35163C196.429 8.35297 196.738 8.88098 196.754 9.69298L196.706 13.653C196.673 14.473 196.35 15.045 195.882 15.1103C195.629 15.125 195.374 15.141 195.121 15.1543C194.869 15.169 194.618 15.1836 194.368 15.1983C194.116 15.2143 193.869 15.2263 193.62 15.2423C193.372 15.257 193.124 15.2716 192.878 15.285ZM186.298 15.6796C185.882 15.665 185.617 15.1663 185.602 14.3757L185.64 10.5836C185.668 9.8023 185.952 9.24764 186.364 9.17431C186.59 9.15431 186.817 9.13298 187.045 9.11164C187.273 9.09431 187.504 9.07297 187.734 9.05297C187.965 9.03164 188.196 9.01164 188.426 8.99031C188.661 8.97164 188.894 8.95031 189.129 8.93165C189.557 8.93431 189.842 9.44766 189.857 10.237L189.817 14.0943C189.785 14.8903 189.486 15.4476 189.058 15.513C188.824 15.5263 188.593 15.5423 188.358 15.5543C188.126 15.569 187.897 15.5823 187.665 15.597C187.436 15.6103 187.208 15.625 186.978 15.6383C186.752 15.6543 186.522 15.6663 186.298 15.6796ZM180.2 16.057C179.812 16.045 179.562 15.5543 179.549 14.7836L179.585 11.089C179.61 10.329 179.874 9.7903 180.257 9.71964C180.469 9.6983 180.682 9.67698 180.896 9.66098C181.106 9.64098 181.32 9.62232 181.533 9.60232C181.75 9.58365 181.964 9.56363 182.18 9.54496C182.394 9.52496 182.61 9.50764 182.829 9.48764C183.225 9.4903 183.488 9.99031 183.501 10.761L183.465 14.5183C183.438 15.2943 183.162 15.8356 182.769 15.8983C182.55 15.9116 182.334 15.925 182.12 15.941C181.905 15.953 181.689 15.9663 181.476 15.9796C181.262 15.993 181.048 16.005 180.834 16.0183C180.622 16.033 180.412 16.045 180.2 16.057ZM174.041 16.441C173.645 16.4303 173.381 15.9436 173.368 15.201L173.397 11.6077C173.424 10.8677 173.694 10.341 174.09 10.269C174.309 10.2503 174.525 10.2316 174.742 10.2116C174.962 10.193 175.181 10.1716 175.4 10.1543C175.618 10.133 175.84 10.113 176.062 10.0943C176.282 10.073 176.506 10.0543 176.728 10.0343C177.132 10.037 177.405 10.5223 177.42 11.2717L177.386 14.933C177.361 15.6863 177.08 16.2143 176.673 16.2783C176.452 16.293 176.23 16.305 176.006 16.321C175.789 16.333 175.569 16.3463 175.348 16.3596C175.129 16.3743 174.912 16.3876 174.692 16.401C174.474 16.4143 174.257 16.4303 174.041 16.441ZM168.132 16.797C167.758 16.781 167.508 16.3076 167.493 15.5863L167.517 12.0823C167.542 11.3623 167.8 10.8516 168.178 10.781C168.385 10.765 168.593 10.7476 168.801 10.7303C169.009 10.7116 169.216 10.6943 169.428 10.677C169.634 10.6596 169.845 10.6396 170.056 10.6223C170.265 10.6063 170.476 10.5877 170.684 10.5677C171.072 10.573 171.326 11.0476 171.34 11.777L171.314 15.341C171.285 16.0743 171.022 16.589 170.64 16.649C170.43 16.6623 170.218 16.6743 170.009 16.6876C169.798 16.701 169.59 16.7116 169.381 16.7236C169.173 16.737 168.965 16.7503 168.758 16.761C168.549 16.7743 168.342 16.7836 168.132 16.797ZM162.433 17.117C162.07 17.1023 161.822 16.6356 161.806 15.933L161.826 12.5116C161.85 11.8076 162.102 11.3103 162.47 11.2463C162.673 11.229 162.876 11.2156 163.08 11.1983C163.282 11.1823 163.484 11.1663 163.686 11.1516C163.889 11.1356 164.094 11.117 164.296 11.1023C164.502 11.0863 164.706 11.069 164.908 11.053C165.277 11.0596 165.528 11.5237 165.542 12.237L165.518 15.7116C165.493 16.4276 165.238 16.9276 164.869 16.985C164.664 16.9983 164.462 17.0076 164.257 17.0183C164.056 17.0303 163.854 17.0423 163.649 17.053C163.446 17.0623 163.245 17.0756 163.042 17.085C162.838 17.097 162.637 17.1076 162.433 17.117ZM156.804 17.4036C156.436 17.3863 156.189 16.9277 156.174 16.2397L156.19 12.8903C156.214 12.201 156.468 11.717 156.833 11.657C157.037 11.6436 157.238 11.6276 157.441 11.6143C157.642 11.6023 157.844 11.5877 158.045 11.573C158.246 11.5597 158.449 11.5476 158.653 11.5316C158.85 11.5156 159.053 11.501 159.257 11.4876C159.622 11.4956 159.872 11.9503 159.884 12.649L159.866 16.045C159.841 16.745 159.593 17.2316 159.221 17.2863C159.022 17.2943 158.82 17.305 158.621 17.3156C158.418 17.3236 158.213 17.333 158.014 17.3436C157.812 17.3543 157.61 17.365 157.41 17.3757C157.208 17.385 157.004 17.393 156.804 17.4036ZM151.109 17.649C150.73 17.6276 150.476 17.177 150.457 16.5023L150.476 13.2183C150.496 12.5423 150.756 12.0676 151.134 12.013C151.338 11.9996 151.545 11.9903 151.752 11.977C151.957 11.9663 152.164 11.953 152.369 11.941C152.576 11.9303 152.781 11.917 152.985 11.9037C153.19 11.893 153.394 11.881 153.598 11.8677C153.97 11.8783 154.217 12.329 154.232 13.0077L154.217 16.333C154.194 17.0223 153.941 17.4983 153.572 17.5476C153.366 17.557 153.162 17.565 152.958 17.573C152.752 17.5837 152.549 17.5916 152.342 17.5996C152.14 17.6076 151.933 17.617 151.728 17.6223C151.52 17.633 151.314 17.641 151.109 17.649ZM145.214 17.8516C144.82 17.829 144.556 17.3863 144.537 16.721L144.548 13.4903C144.569 12.8263 144.837 12.3623 145.233 12.3103C145.449 12.3023 145.668 12.2903 145.878 12.281C146.096 12.2716 146.312 12.261 146.524 12.2503C146.741 12.2423 146.953 12.2316 147.165 12.221C147.378 12.2116 147.592 12.201 147.802 12.1903C148.184 12.2063 148.445 12.6463 148.462 13.3183L148.448 16.5823C148.426 17.2663 148.169 17.721 147.782 17.769C147.569 17.777 147.358 17.785 147.145 17.7916C146.93 17.7983 146.718 17.805 146.504 17.813C146.29 17.8196 146.076 17.8263 145.864 17.833C145.646 17.8383 145.43 17.845 145.214 17.8516ZM138.64 18.0303C138.2 18.005 137.904 17.5676 137.881 16.9143L137.889 13.7303C137.916 13.0756 138.212 12.6223 138.653 12.5703C138.894 12.5623 139.136 12.5543 139.376 12.545C139.616 12.5383 139.858 12.5263 140.1 12.5183C140.34 12.5103 140.581 12.4996 140.824 12.493C141.061 12.4823 141.304 12.4743 141.542 12.4636C141.981 12.4796 142.274 12.917 142.293 13.577L142.285 16.7916C142.261 17.4636 141.968 17.909 141.528 17.9556C141.286 17.9636 141.046 17.969 140.806 17.9757C140.565 17.9797 140.325 17.9876 140.085 17.993C139.846 17.9996 139.602 18.005 139.361 18.013C139.124 18.0183 138.881 18.0236 138.64 18.0303ZM131.874 18.1783C131.433 18.1543 131.133 17.721 131.113 17.073L131.117 13.933C131.14 13.2863 131.44 12.8383 131.884 12.793C132.126 12.7863 132.369 12.7797 132.613 12.7717C132.856 12.7637 133.1 12.7556 133.34 12.749C133.588 12.741 133.828 12.7343 134.072 12.7263C134.314 12.7196 134.558 12.7117 134.798 12.7037C135.241 12.721 135.541 13.1543 135.561 13.805L135.554 16.9743C135.533 17.6277 135.23 18.0756 134.788 18.1196C134.545 18.125 134.304 18.1276 134.061 18.133C133.82 18.1396 133.578 18.1463 133.332 18.149C133.093 18.1543 132.848 18.1596 132.604 18.165C132.361 18.169 132.118 18.1743 131.874 18.1783ZM125.056 18.297C124.612 18.2743 124.308 17.841 124.286 17.201L124.289 14.0916C124.308 13.4516 124.613 13.013 125.058 12.969C125.306 12.9637 125.549 12.9596 125.793 12.953C126.04 12.9463 126.284 12.941 126.528 12.9357C126.772 12.9303 127.02 12.9236 127.262 12.917C127.506 12.9116 127.75 12.9063 127.994 12.8983C128.441 12.9196 128.741 13.349 128.764 13.993L128.761 17.1196C128.736 17.777 128.441 18.209 127.99 18.2503C127.748 18.253 127.504 18.2583 127.26 18.261C127.014 18.2663 126.769 18.2717 126.526 18.2743C126.282 18.277 126.04 18.281 125.793 18.2863C125.546 18.289 125.302 18.2916 125.056 18.297ZM118.193 18.3863C117.742 18.357 117.437 17.9303 117.416 17.297L117.41 14.2156C117.432 13.581 117.74 13.1463 118.189 13.1077C118.436 13.1023 118.682 13.0996 118.929 13.0943C119.176 13.0916 119.421 13.0863 119.665 13.081C119.913 13.0756 120.16 13.0703 120.408 13.0677C120.653 13.0623 120.897 13.0596 121.145 13.053C121.593 13.0756 121.894 13.5023 121.916 14.1383L121.921 17.237C121.897 17.8756 121.596 18.3143 121.146 18.3503C120.902 18.3543 120.654 18.357 120.409 18.361C120.16 18.3636 119.918 18.3676 119.672 18.3676C119.425 18.373 119.18 18.3743 118.932 18.3783C118.686 18.381 118.438 18.3836 118.193 18.3863ZM111.292 18.4476C110.841 18.4196 110.537 17.993 110.512 17.3623L110.504 14.2996C110.526 13.6717 110.829 13.241 111.281 13.205C111.53 13.201 111.774 13.1983 112.025 13.1956C112.273 13.193 112.521 13.1903 112.769 13.185C113.017 13.1823 113.264 13.1796 113.51 13.177C113.761 13.1743 114.006 13.169 114.256 13.1663C114.704 13.193 115.009 13.617 115.033 14.2476L115.04 17.3236C115.014 17.9556 114.709 18.3903 114.262 18.425C114.014 18.4276 113.766 18.4303 113.52 18.4316C113.272 18.4343 113.025 18.4357 112.776 18.4383C112.53 18.4383 112.282 18.441 112.034 18.4436C111.788 18.445 111.541 18.445 111.292 18.4476ZM104.366 18.485C103.914 18.4516 103.608 18.0263 103.582 17.397L103.572 14.3503C103.59 13.7236 103.898 13.2956 104.35 13.2636C104.6 13.261 104.846 13.261 105.096 13.2583C105.345 13.2556 105.593 13.2556 105.842 13.253C106.09 13.253 106.34 13.2503 106.589 13.2476C106.837 13.2476 107.086 13.245 107.332 13.2423C107.785 13.2717 108.092 13.6956 108.116 14.3236L108.125 17.3783C108.102 18.005 107.798 18.4357 107.348 18.4717C107.097 18.4717 106.852 18.4717 106.602 18.4743C106.353 18.4743 106.108 18.477 105.858 18.477C105.608 18.4796 105.36 18.4796 105.112 18.481C104.864 18.4823 104.613 18.4823 104.366 18.485ZM97.4211 18.493C96.9677 18.4596 96.6571 18.0343 96.6344 17.4063L96.6184 14.365C96.6411 13.7397 96.9438 13.3183 97.3984 13.2836C97.6478 13.2836 97.8971 13.2836 98.1464 13.2836C98.3971 13.2836 98.6437 13.2836 98.8944 13.281C99.1424 13.2836 99.3904 13.281 99.6384 13.281C99.8877 13.281 100.137 13.281 100.386 13.281C100.842 13.3103 101.15 13.733 101.176 14.3596L101.188 17.4036C101.165 18.0316 100.86 18.457 100.405 18.4903C100.157 18.4903 99.9078 18.493 99.6611 18.4903C99.4104 18.4903 99.1611 18.493 98.9131 18.4903C98.6651 18.493 98.4157 18.4903 98.1664 18.4903C97.9171 18.4903 97.6717 18.493 97.4211 18.493ZM90.3811 18.4717C89.8904 18.4397 89.5544 18.0103 89.5251 17.3863L89.5091 14.345C89.5304 13.721 89.8637 13.297 90.3557 13.2703L90.6211 13.2717H90.8864L91.1531 13.2743H91.4211C91.5864 13.2743 91.7544 13.277 91.9211 13.277C92.0891 13.277 92.2571 13.2783 92.4237 13.2783C92.5904 13.2783 92.7571 13.2783 92.9264 13.2796C93.0904 13.281 93.2624 13.2796 93.4277 13.2796C93.8797 13.313 94.1891 13.7383 94.2171 14.3623L94.2291 17.4036C94.2104 18.029 93.9051 18.453 93.4504 18.485C93.2851 18.485 93.1171 18.485 92.9491 18.4823C92.7851 18.4823 92.6157 18.4823 92.4491 18.4823C92.2824 18.481 92.1144 18.4796 91.9478 18.4796C91.7838 18.4783 91.6144 18.4783 91.4464 18.477L91.1811 18.4743H90.9131H90.6478L90.3811 18.4717ZM82.8451 18.4223C82.3557 18.3876 82.0184 17.9583 81.9891 17.329L81.9704 14.2836C81.9877 13.6596 82.3198 13.237 82.8118 13.209C83.0838 13.2143 83.3504 13.217 83.6224 13.2196C83.8917 13.221 84.1624 13.2236 84.4304 13.2263C84.7024 13.229 84.9731 13.2316 85.2437 13.2343C85.5144 13.2356 85.7824 13.2397 86.0531 13.241C86.5451 13.277 86.8797 13.705 86.9104 14.329L86.9291 17.3703C86.9051 17.9956 86.5744 18.4196 86.0877 18.4476C85.8157 18.4476 85.5438 18.445 85.2771 18.4436C85.0038 18.441 84.7358 18.4383 84.4651 18.4357C84.1971 18.4357 83.9251 18.4316 83.6557 18.4303C83.3864 18.4276 83.1157 18.425 82.8451 18.4223ZM75.3078 18.341C74.8198 18.305 74.4811 17.873 74.4504 17.2397L74.4264 14.1796C74.4464 13.5503 74.7744 13.1277 75.2691 13.105C75.5371 13.1103 75.8091 13.113 76.0784 13.1196C76.3504 13.1223 76.6184 13.1276 76.8891 13.1316C77.1598 13.1356 77.4304 13.141 77.7024 13.145C77.9704 13.149 78.2411 13.153 78.5104 13.157C79.0038 13.193 79.3397 13.625 79.3677 14.2516L79.3891 17.3023C79.3704 17.9316 79.0411 18.3543 78.5491 18.381C78.2798 18.3783 78.0091 18.3757 77.7384 18.373C77.4704 18.369 77.1998 18.365 76.9304 18.3623C76.6584 18.3596 76.3877 18.3543 76.1184 18.3516C75.8477 18.349 75.5784 18.3463 75.3078 18.341ZM67.7731 18.2263C67.2824 18.1876 66.9451 17.7503 66.9157 17.1143L66.8864 14.0303C66.9024 13.3983 67.2357 12.9743 67.7251 12.953C67.9931 12.961 68.2638 12.9663 68.5358 12.973C68.8051 12.9797 69.0744 12.9863 69.3424 12.993C69.6144 12.9956 69.8811 13.0023 70.1544 13.0077C70.4264 13.0143 70.6944 13.021 70.9651 13.0263C71.4558 13.0676 71.7944 13.5023 71.8237 14.133L71.8504 17.201C71.8331 17.8316 71.5024 18.257 71.0104 18.281C70.7384 18.277 70.4704 18.2743 70.1998 18.269C69.9304 18.2637 69.6584 18.261 69.3918 18.2556C69.1198 18.2503 68.8531 18.245 68.5797 18.2423C68.3117 18.237 68.0411 18.2343 67.7731 18.2263ZM60.5717 18.0876C60.2077 18.0476 59.9571 17.605 59.9318 16.9636L59.8971 13.8516C59.9118 13.2143 60.1531 12.7863 60.5171 12.765L60.7464 12.7717L60.9744 12.7783L61.2011 12.785L61.4278 12.7916C61.5931 12.797 61.7598 12.7997 61.9264 12.805C62.0931 12.8103 62.2598 12.8143 62.4264 12.8183C62.5931 12.8236 62.7597 12.829 62.9237 12.833C63.0917 12.8383 63.2584 12.8436 63.4237 12.8463C63.9171 12.893 64.2531 13.333 64.2824 13.9717L64.3144 17.0596C64.2931 17.6983 63.9677 18.125 63.4784 18.1463C63.3104 18.1463 63.1437 18.141 62.9771 18.1356C62.8104 18.1356 62.6437 18.1316 62.4797 18.1263C62.3131 18.125 62.1464 18.1196 61.9797 18.117C61.8117 18.1143 61.6464 18.1103 61.4797 18.1077L61.2544 18.1023L61.0291 18.0996L60.7997 18.093L60.5717 18.0876ZM54.7411 17.9476C54.3424 17.9036 54.0678 17.4557 54.0411 16.8077L54.0038 13.6676C54.0171 13.0223 54.2851 12.5957 54.6837 12.5757C54.8997 12.5837 55.1158 12.5916 55.3331 12.5996C55.5491 12.605 55.7637 12.6143 55.9811 12.6196C56.1944 12.625 56.4051 12.633 56.6184 12.641C56.8317 12.649 57.0411 12.6556 57.2531 12.6623C57.6331 12.709 57.8971 13.1516 57.9211 13.7916L57.9571 16.9143C57.9438 17.5676 57.6957 17.9876 57.3117 18.0103C57.0997 18.005 56.8891 18.001 56.6757 17.9983C56.4651 17.993 56.2531 17.985 56.0398 17.9796C55.8238 17.977 55.6077 17.9703 55.3944 17.9636C55.1784 17.9583 54.9611 17.953 54.7411 17.9476ZM48.4304 17.7717C48.0024 17.7237 47.7077 17.269 47.6784 16.6116L47.6384 13.433C47.6518 12.7797 47.9358 12.3476 48.3624 12.3316C48.5971 12.341 48.8291 12.3516 49.0638 12.361C49.2944 12.3703 49.5277 12.381 49.7597 12.3876C49.9877 12.3983 50.2197 12.4076 50.4477 12.417C50.6771 12.4263 50.9051 12.4356 51.1344 12.4436C51.5451 12.493 51.8318 12.9436 51.8584 13.593L51.8944 16.745C51.8811 17.3956 51.6104 17.8316 51.1971 17.849C50.9691 17.845 50.7397 17.8383 50.5117 17.8316C50.2837 17.8263 50.0531 17.8183 49.8224 17.813C49.5931 17.805 49.3597 17.7983 49.1277 17.789C48.8971 17.7836 48.6624 17.777 48.4304 17.7717ZM41.6998 17.5476C41.2478 17.4983 40.9317 17.033 40.9037 16.3676L40.8611 13.1357C40.8718 12.473 41.1731 12.0383 41.6251 12.0263C41.8744 12.0396 42.1197 12.0503 42.3691 12.0623C42.6144 12.0743 42.8624 12.0863 43.1064 12.097C43.3504 12.1103 43.5971 12.1196 43.8424 12.133C44.0851 12.1436 44.3264 12.1556 44.5691 12.1663C45.0091 12.2196 45.3144 12.6797 45.3424 13.3357L45.3837 16.5343C45.3704 17.193 45.0784 17.6303 44.6424 17.649C44.3984 17.641 44.1544 17.633 43.9131 17.625C43.6677 17.617 43.4237 17.6076 43.1771 17.5996C42.9317 17.5916 42.6891 17.5837 42.4384 17.573C42.1957 17.5637 41.9478 17.5543 41.6998 17.5476ZM34.5998 17.2717C34.1238 17.2197 33.7971 16.7436 33.7638 16.0623L33.7144 12.769C33.7277 12.0943 34.0424 11.653 34.5197 11.6463C34.7797 11.6623 35.0411 11.6743 35.2984 11.6903C35.5571 11.7063 35.8171 11.721 36.0744 11.7343C36.3304 11.7503 36.5877 11.7636 36.8464 11.7783C37.1024 11.7916 37.3584 11.805 37.6158 11.8183C38.0798 11.8783 38.4011 12.349 38.4358 13.0183L38.4797 16.269C38.4637 16.9383 38.1558 17.381 37.6944 17.397C37.4358 17.3863 37.1798 17.3783 36.9264 17.3676C36.6678 17.357 36.4104 17.345 36.1544 17.3357C35.8944 17.3263 35.6397 17.313 35.3784 17.305C35.1197 17.2943 34.8598 17.2837 34.5998 17.2717ZM27.1691 16.9343C26.6731 16.873 26.3278 16.3863 26.2931 15.689L26.2384 12.317C26.2531 11.625 26.5824 11.1796 27.0797 11.177C27.3504 11.1956 27.6224 11.2156 27.8918 11.2316C28.1624 11.2503 28.4331 11.269 28.7038 11.2863C28.9731 11.3036 29.2411 11.321 29.5117 11.3383C29.7771 11.357 30.0451 11.373 30.3144 11.3903C30.7997 11.4556 31.1358 11.941 31.1678 12.6223L31.2198 15.9436C31.2024 16.6356 30.8891 17.0756 30.3997 17.089C30.1317 17.0756 29.8637 17.0623 29.5971 17.0516C29.3277 17.0396 29.0598 17.0263 28.7891 17.0103C28.5211 16.9996 28.2531 16.9863 27.9811 16.9717C27.7117 16.9597 27.4384 16.9476 27.1691 16.9343ZM19.4264 16.5183C18.9091 16.453 18.5477 15.9463 18.5091 15.2303L18.4504 11.761C18.4637 11.0503 18.8091 10.5943 19.3238 10.6023C19.6078 10.6223 19.8891 10.6463 20.1731 10.6663C20.4544 10.693 20.7344 10.7143 21.0171 10.7343C21.2984 10.757 21.5744 10.777 21.8557 10.797C22.1371 10.821 22.4144 10.841 22.6931 10.8636C23.1971 10.9356 23.5491 11.4357 23.5864 12.1357L23.6411 15.5423C23.6278 16.2397 23.2931 16.6983 22.7864 16.709C22.5091 16.6917 22.2331 16.677 21.9531 16.6623C21.6731 16.6476 21.3957 16.6316 21.1131 16.617C20.8344 16.5996 20.5518 16.5836 20.2718 16.5676C19.9878 16.553 19.7078 16.5356 19.4264 16.5183ZM11.3731 16.0116C10.8371 15.9383 10.4637 15.409 10.4237 14.669L10.3584 11.0783C10.3718 10.3463 10.7251 9.88098 11.2611 9.89298C11.5531 9.91964 11.8491 9.94763 12.1411 9.97696C12.4358 10.0023 12.7277 10.0316 13.0197 10.0596C13.3117 10.0836 13.6024 10.1117 13.8944 10.137C14.1851 10.165 14.4758 10.1876 14.7638 10.217C15.2891 10.2996 15.6544 10.821 15.6957 11.5423L15.7571 15.049C15.7411 15.7716 15.3944 16.2397 14.8718 16.2423C14.5824 16.2237 14.2918 16.2063 14.0011 16.1876C13.7118 16.1676 13.4184 16.1516 13.1291 16.1303C12.8371 16.1116 12.5451 16.0917 12.2517 16.0717C11.9597 16.053 11.6638 16.0316 11.3731 16.0116ZM2.99841 15.3903C2.44108 15.305 2.0544 14.753 2.00906 13.9796L1.93842 10.241C1.94908 9.47699 2.31973 8.9983 2.87573 9.0223C3.18107 9.05697 3.48776 9.09164 3.79309 9.12497C4.09976 9.15964 4.40374 9.19297 4.70908 9.22497C5.01174 9.25697 5.31707 9.29031 5.61841 9.32364C5.92107 9.35431 6.21975 9.38764 6.52509 9.41964C7.07175 9.51297 7.45175 10.0596 7.49042 10.8103L7.55841 14.4463C7.54641 15.1943 7.18373 15.6743 6.6424 15.6743C6.33973 15.6503 6.03843 15.6277 5.73843 15.6077C5.43577 15.5823 5.1331 15.5596 4.8291 15.5343C4.52643 15.5103 4.21973 15.4876 3.9184 15.4636C3.61306 15.441 3.30908 15.4143 2.99841 15.3903ZM318.594 77.417C318.144 76.7316 317.822 76.045 317.824 73.417L319.476 21.045C319.615 18.841 319.962 17.4276 320.513 16.8436L318.594 77.417ZM257.435 77.8903C255.159 77.6103 253.65 75.7783 253.588 73.221L254.693 20.8183C254.866 18.2236 256.467 16.4356 258.775 16.261C262.226 16.2036 265.573 16.157 268.811 16.117C272.069 16.0756 275.21 16.0476 278.22 16.0236C281.244 16.0023 284.13 15.989 286.878 15.9823C289.629 15.9796 292.235 15.9823 294.686 15.993C297.089 15.9996 299.343 16.0183 301.444 16.041C303.54 16.0623 305.484 16.0916 307.275 16.125C309.059 16.1596 310.687 16.1957 312.163 16.2397C313.632 16.281 314.944 16.3263 316.106 16.3783C317.27 16.701 317.843 18.245 317.811 20.9743L316.161 73.669C316.025 76.3596 315.361 77.9276 314.187 78.333C313.031 78.4636 311.722 78.5863 310.267 78.693C308.801 78.7996 307.186 78.893 305.416 78.969C303.642 79.045 301.716 79.105 299.639 79.141C297.557 79.1823 295.322 79.201 292.948 79.197C290.515 79.193 287.939 79.1663 285.217 79.1116C282.499 79.0596 279.642 78.9797 276.655 78.873C273.676 78.7677 270.574 78.6303 267.353 78.469C264.152 78.3037 260.845 78.1116 257.435 77.8903ZM194.308 71.0317C192.536 70.445 192.233 68.2143 192.209 66.9356L192.706 22.1743C192.76 20.8837 193.113 18.6543 194.912 18.2503C197.76 18.1196 200.728 17.9903 203.85 17.857C207.038 17.7236 210.376 17.5916 213.896 17.461C217.485 17.329 221.259 17.1983 225.234 17.073C229.29 16.945 233.551 16.8223 238.04 16.709C238.734 16.6877 239.423 16.6716 240.108 16.6543C240.799 16.6383 241.485 16.6197 242.171 16.605C242.858 16.5877 243.54 16.5703 244.224 16.5543C244.906 16.5396 245.589 16.5237 246.267 16.5077C248.676 16.5863 250.215 18.2583 250.283 20.873L249.222 72.929C249.047 75.493 247.458 77.045 245.073 76.9796C244.402 76.925 243.728 76.8703 243.051 76.813C242.379 76.7556 241.705 76.6983 241.025 76.6383C240.348 76.5797 239.668 76.5183 238.989 76.4583C238.309 76.397 237.628 76.3357 236.946 76.273C232.511 75.8637 228.295 75.4383 224.288 74.9983C220.358 74.565 216.626 74.121 213.08 73.6717C209.6 73.2317 206.297 72.7863 203.145 72.3383C200.062 71.9037 197.124 71.4636 194.308 71.0317ZM156.097 65.065C154.648 64.613 154.389 62.721 154.364 61.633L154.554 23.381C154.589 22.2783 154.869 20.3836 156.332 20.053C158.189 19.985 160.022 19.9116 161.85 19.8343C163.708 19.7556 165.557 19.6716 167.424 19.5863C169.317 19.4983 171.228 19.4063 173.173 19.313C175.153 19.2143 177.169 19.1143 179.238 19.013C179.97 18.9756 180.704 18.9383 181.448 18.901C182.192 18.8636 182.945 18.8263 183.708 18.789C184.47 18.7503 185.245 18.7117 186.028 18.6743C186.816 18.6357 187.61 18.597 188.416 18.557C190.108 18.7943 190.397 20.9716 190.421 22.2503L189.941 66.6116C189.864 68.7583 189.052 70.097 187.88 70.0183C187.085 69.8903 186.296 69.7623 185.52 69.6357C184.744 69.5077 183.978 69.3836 183.217 69.2583C182.466 69.133 181.721 69.0103 180.981 68.8876C180.248 68.7676 179.52 68.6463 178.798 68.5263C176.746 68.1876 174.752 67.857 172.79 67.537C170.862 67.2237 168.969 66.9196 167.094 66.6276C165.242 66.3436 163.408 66.065 161.569 65.805C159.757 65.545 157.938 65.2996 156.097 65.065ZM115.085 62.1516C113.312 61.8436 112.981 60.1143 112.944 59.1116L112.881 23.8503C112.938 22.1116 113.782 20.9263 115.025 20.829C117.481 20.813 119.926 20.7916 122.356 20.769C124.798 20.7423 127.226 20.7116 129.634 20.6796C132.062 20.6463 134.476 20.6076 136.858 20.565C139.264 20.521 141.653 20.473 144.006 20.4196C144.593 20.4063 145.176 20.393 145.753 20.3783C146.33 20.365 146.905 20.349 147.473 20.3357C148.044 20.3197 148.609 20.305 149.17 20.2863C149.733 20.273 150.293 20.2557 150.848 20.2397C152.334 20.461 152.597 22.329 152.621 23.425L152.444 61.4303C152.385 63.2996 151.7 64.4503 150.657 64.433C150.105 64.373 149.55 64.3156 148.992 64.2583C148.434 64.2036 147.874 64.149 147.309 64.0943C146.741 64.0423 146.173 63.989 145.6 63.9383C145.028 63.8876 144.449 63.8383 143.864 63.789C141.529 63.597 139.16 63.417 136.766 63.253C134.4 63.0916 132.008 62.9436 129.596 62.805C127.205 62.669 124.79 62.5503 122.364 62.441C119.952 62.3317 117.522 62.2356 115.085 62.1516ZM69.3704 62.021C68.0251 61.9743 67.0997 60.8316 67.0171 59.1077L66.6891 23.6516C66.7411 21.9063 67.6504 20.7316 69.0051 20.665C70.8718 20.6876 72.7451 20.7143 74.6184 20.7343C76.4877 20.7556 78.3611 20.7743 80.2331 20.7916C82.1051 20.8076 83.9771 20.821 85.8477 20.833C87.7197 20.8463 89.5904 20.8543 91.4597 20.8623C92.8731 20.8663 94.2864 20.873 95.6984 20.8757C97.1104 20.877 98.5224 20.8783 99.9304 20.8783C101.342 20.8783 102.754 20.877 104.157 20.8757C105.569 20.873 106.976 20.8703 108.378 20.8636C110.165 21.1103 110.497 22.8436 110.538 23.857L110.614 59.0503C110.58 60.0476 110.26 61.753 108.481 61.9556C107.089 61.9223 105.69 61.8903 104.29 61.8623C102.892 61.8356 101.49 61.8156 100.089 61.7943C98.6904 61.777 97.2891 61.761 95.8851 61.7503C94.4811 61.7396 93.0771 61.7316 91.6744 61.7263C89.8184 61.7236 87.9584 61.7263 86.1011 61.737C84.2411 61.7476 82.3811 61.765 80.5251 61.7863C78.6624 61.8116 76.8011 61.8436 74.9464 61.8836C73.0851 61.9223 71.2251 61.969 69.3704 62.021ZM26.2638 64.9303C24.8904 64.9903 23.9358 63.805 23.8371 61.909L23.2011 22.7423C23.2384 20.813 24.1597 19.5423 25.5437 19.5023C28.9371 19.6463 32.2891 19.7716 35.5611 19.8823C38.7718 19.9903 41.9211 20.0863 44.9637 20.169C47.9677 20.253 50.8784 20.3236 53.6571 20.3863C56.4104 20.4476 59.0411 20.4997 61.5038 20.5423L61.5704 20.545H61.6344H61.6998L61.7638 20.5503C63.1184 20.6596 64.0504 21.8676 64.1358 23.6196L64.4784 59.185C64.4277 60.9196 63.5251 62.1303 62.1824 62.273L62.1158 62.2743L62.0531 62.277L61.9877 62.2783L61.9264 62.281C59.4798 62.3836 56.8691 62.5023 54.1398 62.6516C51.3784 62.7996 48.4877 62.9743 45.5104 63.1823C42.4917 63.393 39.3718 63.6383 36.1891 63.9223C32.9464 64.2116 29.6264 64.5476 26.2638 64.9303ZM21.2157 62.2036C21.1011 64.2543 20.3238 65.4476 18.8398 65.8543C17.4611 66.0396 16.0771 66.2343 14.6891 66.441C13.2824 66.6517 11.8717 66.8703 10.4557 67.1023C9.02375 67.3356 7.58244 67.5823 6.13977 67.841C4.67577 68.1023 3.20509 68.3783 1.73309 68.669L0.725098 18.1516C2.21976 18.253 3.70908 18.3503 5.19308 18.445C6.65308 18.5396 8.11175 18.6263 9.56375 18.7116C10.9958 18.7943 12.4251 18.873 13.8451 18.9476C15.2517 19.0236 16.6478 19.0943 18.0411 19.1623C19.5478 19.445 20.3744 20.589 20.5558 22.657L21.2157 62.2036ZM318.259 87.8903C318.088 87.7343 318.001 87.257 318.004 86.469L318.146 82.0183C318.193 81.2263 318.314 80.6957 318.499 80.441L318.261 87.893M313.25 88.9303C312.807 88.9383 312.523 88.3436 312.53 87.4116L312.668 82.8836C312.719 81.9503 313.043 81.2876 313.491 81.1903C313.728 81.1623 313.96 81.1357 314.187 81.1077C314.413 81.0783 314.632 81.053 314.85 81.021C315.064 80.9956 315.271 80.965 315.476 80.9357C315.678 80.905 315.875 80.8756 316.068 80.8436C316.409 80.8343 316.613 81.4077 316.6 82.341L316.461 86.821C316.413 87.7663 316.171 88.4196 315.826 88.529C315.634 88.5623 315.439 88.5996 315.234 88.633C315.033 88.669 314.823 88.7023 314.608 88.7357C314.394 88.769 314.173 88.801 313.95 88.8343C313.72 88.8663 313.489 88.8983 313.25 88.9303ZM305.018 89.637C304.366 89.6223 303.941 89.0023 303.936 88.0583L304.072 83.477C304.133 82.5343 304.594 81.8756 305.251 81.797C305.6 81.781 305.945 81.765 306.287 81.7476C306.623 81.7303 306.957 81.7143 307.283 81.6943C307.613 81.677 307.932 81.657 308.246 81.6357C308.564 81.6143 308.871 81.597 309.175 81.5743C309.72 81.5837 310.06 82.177 310.059 83.125L309.921 87.6743C309.865 88.633 309.489 89.285 308.939 89.3783C308.637 89.401 308.328 89.4276 308.013 89.4503C307.698 89.473 307.379 89.4956 307.051 89.5156C306.722 89.5383 306.391 89.5596 306.052 89.5783C305.715 89.5996 305.368 89.617 305.018 89.637ZM293.639 89.921C292.477 89.8543 292.373 88.649 292.37 88.2783L292.494 83.6743C292.543 82.9197 292.928 82.0917 293.861 82.0383C294.324 82.037 294.78 82.037 295.232 82.033C295.682 82.0317 296.129 82.0263 296.568 82.0236C297.009 82.0183 297.441 82.013 297.868 82.0077C298.297 82.0023 298.719 81.9956 299.134 81.9876C299.889 82.021 300.365 82.637 300.377 83.5943L300.241 88.189C300.178 89.1543 299.666 89.7943 298.911 89.8596C298.494 89.8676 298.072 89.877 297.646 89.8836C297.22 89.8903 296.785 89.8956 296.345 89.901C295.907 89.9063 295.461 89.9116 295.011 89.9143C294.559 89.917 294.103 89.9196 293.639 89.921ZM283.804 89.797C283.139 89.729 282.705 89.0743 282.694 88.125L282.811 83.5316C282.871 82.589 283.343 81.9583 284.009 81.925C284.375 81.9356 284.735 81.9436 285.096 81.9503C285.457 81.9556 285.814 81.9637 286.171 81.969C286.525 81.977 286.879 81.9823 287.228 81.989C287.577 81.9943 287.927 81.9997 288.272 82.0023C288.902 82.0597 289.299 82.6916 289.304 83.6543L289.178 88.2583C289.121 89.221 288.694 89.8436 288.061 89.8836C287.717 89.8783 287.37 89.873 287.019 89.865C286.671 89.8597 286.315 89.8516 285.962 89.845C285.607 89.8383 285.249 89.833 284.892 89.8236C284.53 89.8143 284.168 89.8063 283.804 89.797ZM273.038 89.381C272.299 89.2956 271.81 88.633 271.795 87.6876L271.904 83.1263C271.967 82.193 272.484 81.5783 273.228 81.5623C273.632 81.5783 274.037 81.597 274.44 81.613C274.843 81.629 275.242 81.6463 275.639 81.6623C276.037 81.6783 276.431 81.693 276.827 81.7063C277.219 81.7237 277.611 81.737 278.001 81.7503C278.716 81.8236 279.168 82.4636 279.181 83.4223L279.064 88.0077C279.005 88.953 278.511 89.577 277.802 89.597C277.414 89.581 277.022 89.5636 276.632 89.5476C276.239 89.5316 275.843 89.513 275.446 89.4956C275.049 89.477 274.649 89.4583 274.246 89.441C273.848 89.421 273.441 89.401 273.038 89.381ZM261.217 88.6543C260.418 88.5476 259.887 87.8783 259.867 86.945L259.967 82.4397C260.028 81.5157 260.589 80.9236 261.389 80.9276C261.829 80.953 262.269 80.9823 262.705 81.0077C263.141 81.0357 263.577 81.0623 264.011 81.0863C264.444 81.1116 264.877 81.1356 265.304 81.1623C265.733 81.185 266.166 81.209 266.59 81.2316C267.372 81.3236 267.868 81.9716 267.887 82.921L267.78 87.469C267.717 88.417 267.193 89.005 266.407 89.005C265.983 88.9783 265.556 88.9503 265.127 88.9236C264.696 88.893 264.266 88.865 263.834 88.8356C263.4 88.8077 262.965 88.7783 262.53 88.749C262.093 88.717 261.657 88.685 261.217 88.6543ZM248.586 87.605C247.737 87.477 247.175 86.805 247.15 85.8876L247.24 81.4636C247.301 80.5597 247.889 79.9903 248.741 80.0116C249.205 80.0503 249.669 80.0863 250.129 80.1223C250.594 80.1596 251.054 80.1956 251.511 80.2316C251.974 80.2676 252.431 80.3023 252.887 80.3383C253.344 80.3703 253.801 80.4037 254.256 80.441C255.082 80.545 255.627 81.2117 255.65 82.1357L255.552 86.617C255.491 87.5516 254.931 88.117 254.095 88.0956C253.638 88.057 253.183 88.017 252.726 87.977C252.272 87.9356 251.814 87.8983 251.356 87.857C250.893 87.817 250.435 87.7743 249.972 87.7316C249.511 87.6903 249.049 87.6463 248.586 87.605ZM235.644 86.2596C234.927 86.133 234.453 85.4716 234.433 84.577L234.511 80.2543C234.564 79.3703 235.06 78.8157 235.778 78.841L236.056 78.8703L236.334 78.8956L236.615 78.925L236.896 78.9503C237.261 78.9876 237.627 79.0236 237.991 79.057C238.358 79.0943 238.722 79.1276 239.084 79.1623C239.45 79.1956 239.814 79.2303 240.181 79.2636C240.542 79.297 240.905 79.333 241.267 79.365C242.125 79.4903 242.696 80.1556 242.722 81.0623L242.637 85.453C242.578 86.3516 241.982 86.9063 241.127 86.8623C240.761 86.8236 240.4 86.7836 240.035 86.7463C239.673 86.7063 239.309 86.669 238.946 86.629C238.582 86.589 238.216 86.5503 237.854 86.5077C237.489 86.4677 237.123 86.4276 236.761 86.3863L236.478 86.3543L236.2 86.3236L235.921 86.2916L235.644 86.2596ZM225.125 84.9663C224.478 84.8383 224.051 84.1876 224.033 83.3116L224.1 79.0916C224.149 78.2263 224.595 77.6876 225.247 77.717C225.606 77.7583 225.965 77.7997 226.327 77.841C226.69 77.881 227.056 77.925 227.421 77.9636C227.788 78.005 228.157 78.045 228.528 78.0863C228.897 78.1276 229.269 78.1663 229.646 78.2063C230.329 78.3277 230.783 78.9743 230.804 79.8596L230.727 84.1476C230.678 85.0276 230.202 85.5703 229.519 85.529C229.146 85.4836 228.775 85.4383 228.402 85.3903C228.035 85.3436 227.666 85.297 227.299 85.2503C226.933 85.2036 226.57 85.1557 226.205 85.1077C225.845 85.0597 225.484 85.0143 225.125 84.9663ZM215.618 83.6303C215.028 83.4983 214.648 82.8783 214.629 82.0077L214.69 77.8876C214.734 77.033 215.13 76.5236 215.724 76.5543C216.048 76.5996 216.374 76.6396 216.702 76.6823C217.028 76.7236 217.357 76.765 217.689 76.8077C218.019 76.849 218.352 76.8903 218.686 76.933C219.022 76.9743 219.357 77.017 219.695 77.057C220.317 77.177 220.728 77.8143 220.746 78.677L220.678 82.8663C220.634 83.7236 220.205 84.2517 219.584 84.2063C219.246 84.161 218.909 84.1116 218.577 84.0623C218.241 84.0143 217.911 83.969 217.579 83.9196C217.248 83.8703 216.921 83.8237 216.596 83.7743C216.265 83.7263 215.941 83.677 215.618 83.6303ZM207.028 82.277C206.494 82.1463 206.144 81.5236 206.126 80.693L206.18 76.677C206.22 75.8543 206.588 75.3463 207.122 75.381C207.414 75.4223 207.708 75.4637 208.004 75.5077C208.298 75.5477 208.597 75.5917 208.894 75.6343C209.194 75.6743 209.496 75.717 209.798 75.7596C210.102 75.8023 210.405 75.8436 210.709 75.8863C211.269 76.005 211.641 76.625 211.654 77.4717L211.598 81.553C211.557 82.3903 211.17 82.9036 210.613 82.857C210.308 82.809 210.001 82.761 209.701 82.7116C209.397 82.665 209.098 82.6143 208.798 82.5677C208.502 82.5183 208.205 82.4703 207.909 82.4223C207.613 82.373 207.32 82.3236 207.028 82.277ZM199.244 80.933C198.764 80.805 198.444 80.1996 198.43 79.3876L198.476 75.4743C198.51 74.6743 198.842 74.1796 199.324 74.2143C199.593 74.2556 199.858 74.297 200.129 74.3383C200.397 74.3783 200.665 74.4223 200.938 74.4623C201.209 74.5023 201.484 74.5476 201.756 74.5876C202.03 74.6276 202.306 74.669 202.582 74.7143C203.089 74.8316 203.428 75.4383 203.438 76.2583L203.388 80.2397C203.353 81.057 203.002 81.5543 202.497 81.5077C202.22 81.4597 201.946 81.4116 201.67 81.3623C201.394 81.3156 201.125 81.2663 200.853 81.2196C200.582 81.1716 200.312 81.1237 200.042 81.0757C199.774 81.029 199.509 80.9797 199.244 80.933ZM192.162 79.6183C191.722 79.4943 191.433 78.9036 191.42 78.1116L191.461 74.3023C191.489 73.5237 191.794 73.0397 192.236 73.073C192.477 73.1117 192.721 73.1543 192.965 73.193C193.212 73.2316 193.457 73.2743 193.708 73.3156C193.954 73.3543 194.204 73.3957 194.453 73.4357C194.702 73.4783 194.953 73.5183 195.206 73.5596C195.665 73.6743 195.972 74.2663 195.986 75.0663L195.941 78.9436C195.906 79.7396 195.592 80.2236 195.129 80.177C194.876 80.1303 194.628 80.0837 194.376 80.037C194.129 79.9903 193.877 79.945 193.632 79.8956C193.384 79.8516 193.14 79.8023 192.892 79.7556C192.648 79.7116 192.406 79.665 192.162 79.6183ZM185.668 78.349C185.257 78.229 184.996 77.6663 184.982 76.8863L185.018 73.169C185.044 72.4117 185.324 71.941 185.73 71.9717C185.954 72.0103 186.18 72.0476 186.405 72.0863C186.63 72.1263 186.858 72.165 187.082 72.2037C187.312 72.2423 187.541 72.281 187.769 72.321C188 72.3596 188.23 72.3983 188.46 72.4397C188.884 72.5503 189.165 73.1263 189.181 73.905L189.142 77.6823C189.109 78.4583 188.817 78.933 188.39 78.8863C188.16 78.841 187.93 78.797 187.702 78.753C187.474 78.7063 187.245 78.6623 187.02 78.617C186.792 78.5716 186.566 78.5263 186.341 78.4823C186.114 78.4383 185.89 78.393 185.668 78.349ZM179.645 77.137C179.264 77.021 179.017 76.477 179.004 75.7143L179.038 72.093C179.062 71.3516 179.324 70.8903 179.702 70.921C179.91 70.9556 180.12 70.9943 180.329 71.0303C180.541 71.0676 180.75 71.105 180.964 71.141C181.173 71.177 181.384 71.2156 181.6 71.253C181.813 71.2916 182.026 71.329 182.24 71.365C182.632 71.4717 182.892 72.0316 182.905 72.7916L182.869 76.4743C182.844 77.229 182.574 77.6903 182.18 77.6503C181.968 77.6076 181.754 77.5623 181.541 77.5196C181.326 77.477 181.117 77.4343 180.904 77.3903C180.693 77.349 180.481 77.3076 180.272 77.265C180.064 77.221 179.856 77.177 179.645 77.137ZM173.558 75.9103C173.169 75.7943 172.91 75.2503 172.896 74.5183L172.925 70.993C172.949 70.2716 173.22 69.8263 173.608 69.8556C173.824 69.8903 174.04 69.9303 174.253 69.9663C174.469 70.005 174.686 70.045 174.902 70.081C175.12 70.117 175.337 70.157 175.556 70.193C175.773 70.2316 175.996 70.2717 176.212 70.309C176.616 70.417 176.884 70.9663 176.897 71.7063L176.866 75.2916C176.84 76.029 176.561 76.477 176.16 76.433C175.941 76.3877 175.724 76.3436 175.504 76.2996C175.288 76.257 175.072 76.2143 174.85 76.169C174.634 76.125 174.418 76.0837 174.205 76.0397C173.988 75.9957 173.774 75.953 173.558 75.9103ZM167.72 74.7636C167.349 74.657 167.1 74.1276 167.088 73.417L167.11 69.9796C167.134 69.277 167.389 68.8356 167.762 68.8623C167.965 68.8956 168.173 68.9303 168.378 68.965C168.585 68.9997 168.79 69.0343 168.997 69.0677C169.205 69.1023 169.41 69.1383 169.618 69.1717C169.826 69.2063 170.034 69.2423 170.242 69.2783C170.621 69.3783 170.876 69.9103 170.886 70.6316L170.862 74.1276C170.837 74.8436 170.577 75.281 170.197 75.245C169.99 75.2036 169.781 75.165 169.577 75.1223C169.366 75.0836 169.16 75.0423 168.954 75.0023C168.746 74.9623 168.541 74.9236 168.334 74.8836C168.128 74.841 167.926 74.805 167.72 74.7636ZM162.082 73.7263C161.718 73.6276 161.476 73.113 161.462 72.4196L161.481 69.0596C161.504 68.373 161.756 67.941 162.118 67.961C162.32 67.993 162.52 68.0236 162.718 68.0543C162.92 68.0836 163.122 68.1143 163.322 68.1463C163.522 68.177 163.722 68.2103 163.924 68.2423C164.126 68.2743 164.326 68.305 164.532 68.3383C164.897 68.4317 165.142 68.945 165.154 69.6516L165.132 73.0623C165.11 73.7596 164.856 74.1903 164.49 74.161C164.29 74.1236 164.088 74.0863 163.885 74.0503C163.686 74.013 163.486 73.977 163.284 73.941C163.086 73.9063 162.884 73.869 162.685 73.833C162.484 73.797 162.282 73.7623 162.082 73.7263ZM156.509 72.8023C156.144 72.7117 155.901 72.2116 155.886 71.5317L155.902 68.2423C155.928 67.5677 156.176 67.1436 156.541 67.157C156.741 67.185 156.938 67.2117 157.14 67.2383C157.34 67.2677 157.538 67.2943 157.74 67.3236C157.937 67.349 158.137 67.3783 158.337 67.4063C158.537 67.4357 158.738 67.4623 158.937 67.4903C159.301 67.5783 159.545 68.0783 159.561 68.7677L159.54 72.1023C159.52 72.7837 159.268 73.2116 158.904 73.185C158.705 73.153 158.505 73.1196 158.306 73.0876C158.105 73.0543 157.906 73.021 157.708 72.9903C157.508 72.9583 157.31 72.9276 157.108 72.8956C156.91 72.8636 156.709 72.833 156.509 72.8023ZM150.87 71.9903C150.496 71.9063 150.246 71.4236 150.228 70.7556L150.241 67.5263C150.262 66.8663 150.52 66.445 150.893 66.453C151.1 66.477 151.305 66.501 151.506 66.525C151.712 66.5476 151.917 66.5716 152.12 66.597C152.321 66.6196 152.525 66.645 152.73 66.669C152.929 66.693 153.134 66.7197 153.337 66.7423C153.704 66.8237 153.949 67.3103 153.965 67.985L153.949 71.253C153.926 71.933 153.681 72.3436 153.309 72.3236C153.106 72.2943 152.904 72.269 152.701 72.2383C152.498 72.2103 152.296 72.181 152.093 72.1543C151.889 72.1276 151.685 72.0997 151.484 72.073C151.277 72.045 151.076 72.017 150.87 71.9903ZM145.03 71.2983C144.64 71.2237 144.378 70.7503 144.358 70.097L144.369 66.9196C144.392 66.269 144.66 65.849 145.049 65.8516C145.264 65.873 145.478 65.8903 145.69 65.9116C145.905 65.9316 146.117 65.9517 146.329 65.9717C146.541 65.993 146.753 66.013 146.962 66.037C147.176 66.0543 147.385 66.0756 147.593 66.097C147.976 66.169 148.233 66.6437 148.249 67.305L148.234 70.513C148.212 71.1823 147.958 71.5916 147.574 71.581C147.364 71.5543 147.153 71.5317 146.941 71.5077C146.732 71.4837 146.522 71.461 146.309 71.4383C146.097 71.4143 145.884 71.3903 145.67 71.3663C145.46 71.3437 145.245 71.321 145.03 71.2983ZM138.514 70.6743C138.08 70.605 137.785 70.141 137.764 69.4956L137.772 66.3676C137.796 65.7237 138.09 65.313 138.528 65.3103C138.766 65.329 139.004 65.3463 139.246 65.3676C139.484 65.3863 139.722 65.4036 139.96 65.4223C140.2 65.441 140.438 65.461 140.676 65.4796C140.914 65.4983 141.153 65.5183 141.392 65.537C141.822 65.605 142.116 66.0703 142.134 66.721L142.126 69.881C142.102 70.5303 141.809 70.9437 141.376 70.9357C141.14 70.9117 140.898 70.8903 140.662 70.8703C140.424 70.8477 140.186 70.8263 139.948 70.805C139.708 70.7837 139.47 70.761 139.23 70.7383C138.993 70.7183 138.753 70.6957 138.514 70.6743ZM131.81 70.1383C131.372 70.0743 131.074 69.621 131.05 68.9823L131.056 65.893C131.08 65.2596 131.377 64.8476 131.82 64.8436C132.057 64.8583 132.3 64.8756 132.538 64.8903C132.782 64.9063 133.024 64.921 133.264 64.9356C133.504 64.953 133.746 64.969 133.986 64.985C134.228 64.9996 134.465 65.0183 134.708 65.0343C135.145 65.097 135.441 65.553 135.464 66.193L135.458 69.3077C135.433 69.9477 135.136 70.3596 134.697 70.3583C134.457 70.3383 134.214 70.321 133.974 70.3023C133.736 70.2837 133.496 70.2663 133.254 70.2476C133.013 70.229 132.772 70.2116 132.533 70.193C132.292 70.1743 132.049 70.157 131.81 70.1383ZM125.048 69.693C124.597 69.633 124.306 69.1956 124.282 68.557L124.285 65.4996C124.306 64.873 124.605 64.461 125.049 64.453C125.293 64.465 125.534 64.4783 125.777 64.4903C126.021 64.505 126.264 64.5156 126.506 64.529C126.75 64.545 126.993 64.557 127.236 64.5703C127.476 64.5836 127.72 64.5996 127.962 64.6116C128.401 64.6676 128.702 65.1143 128.722 65.7476L128.72 68.8263C128.697 69.469 128.405 69.8703 127.957 69.873C127.717 69.857 127.474 69.841 127.23 69.8263C126.99 69.8103 126.746 69.7943 126.504 69.781C126.262 69.7663 126.02 69.7503 125.776 69.7343C125.536 69.721 125.292 69.7063 125.048 69.693ZM118.241 69.3317C117.794 69.2783 117.49 68.8383 117.468 68.2143L117.465 65.1836C117.486 64.5623 117.788 64.1503 118.236 64.1383C118.481 64.149 118.724 64.1596 118.968 64.169C119.214 64.177 119.46 64.189 119.704 64.1983C119.946 64.2103 120.192 64.2196 120.434 64.2303C120.678 64.241 120.924 64.253 121.165 64.2636C121.61 64.3156 121.913 64.7556 121.933 65.3836L121.936 68.4303C121.914 69.057 121.613 69.4663 121.17 69.477C120.926 69.4636 120.682 69.4503 120.437 69.4383C120.194 69.4263 119.952 69.4143 119.708 69.401C119.462 69.3877 119.218 69.3757 118.973 69.365C118.73 69.3543 118.484 69.3437 118.241 69.3317ZM111.394 69.0516C110.949 69.005 110.645 68.573 110.621 67.9503L110.612 64.941C110.634 64.321 110.938 63.9116 111.385 63.8916C111.629 63.8983 111.878 63.9063 112.122 63.9143C112.369 63.9223 112.613 63.9316 112.861 63.9383C113.104 63.9476 113.352 63.957 113.597 63.9636C113.842 63.9716 114.088 63.9823 114.334 63.9903C114.78 64.0356 115.082 64.469 115.105 65.0916L115.112 68.1143C115.09 68.737 114.785 69.1476 114.34 69.161C114.097 69.1516 113.85 69.141 113.605 69.1303C113.36 69.1223 113.113 69.1117 112.869 69.105C112.622 69.0957 112.376 69.0863 112.132 69.0783C111.885 69.069 111.641 69.0596 111.394 69.0516ZM104.525 68.853C104.077 68.8103 103.77 68.3836 103.746 67.7663L103.737 64.769C103.757 64.1516 104.062 63.7396 104.509 63.717C104.756 63.721 105.004 63.7263 105.249 63.7316C105.497 63.737 105.742 63.7423 105.99 63.749C106.236 63.7556 106.482 63.761 106.728 63.7663C106.976 63.7743 107.22 63.7783 107.47 63.785C107.914 63.8276 108.22 64.253 108.242 64.873L108.253 67.8783C108.23 68.4983 107.929 68.909 107.484 68.9303C107.236 68.9223 106.988 68.9143 106.745 68.9077C106.494 68.901 106.252 68.8956 106.004 68.8876C105.757 68.8836 105.512 68.8757 105.264 68.8703C105.017 68.865 104.773 68.8583 104.525 68.853ZM97.6371 68.7316C97.1811 68.6956 96.8784 68.281 96.8557 67.657L96.8424 64.665C96.8611 64.053 97.1624 63.6356 97.6131 63.6103C97.8611 63.6116 98.1077 63.6143 98.3557 63.617C98.6024 63.6196 98.8477 63.625 99.0957 63.6276C99.3424 63.6303 99.5904 63.633 99.8371 63.6383C100.085 63.641 100.33 63.645 100.577 63.649C101.028 63.685 101.334 64.1076 101.361 64.725L101.372 67.721C101.35 68.3356 101.045 68.7503 100.596 68.7743C100.35 68.769 100.1 68.7677 99.8584 68.7637C99.6104 68.7583 99.3637 68.7556 99.1171 68.753C98.8691 68.7476 98.6224 68.745 98.3744 68.7423C98.1291 68.737 97.8824 68.7343 97.6371 68.7316ZM90.6531 68.6903C90.1664 68.6596 89.8317 68.2396 89.8037 67.625L89.7877 64.633C89.8077 64.021 90.1371 63.6023 90.6264 63.5703H90.8917L91.1544 63.5716L91.4224 63.573L91.6837 63.5716C91.8504 63.573 92.0171 63.573 92.1811 63.573C92.3451 63.573 92.5118 63.5757 92.6784 63.5757C92.8451 63.577 93.0117 63.577 93.1771 63.5783C93.3397 63.5783 93.5064 63.5783 93.6731 63.5796C94.1237 63.6116 94.4304 64.0316 94.4584 64.6463L94.4704 67.6383C94.4491 68.253 94.1478 68.669 93.6998 68.6983C93.5331 68.6983 93.3691 68.6983 93.2024 68.697C93.0357 68.697 92.8717 68.6956 92.7051 68.6956C92.5397 68.693 92.3744 68.693 92.2077 68.693C92.0411 68.6916 91.8771 68.693 91.7104 68.6916L91.4451 68.6903H91.1811H90.9197H90.6531ZM83.1784 68.7343C82.6918 68.7117 82.3584 68.2943 82.3304 67.677L82.3104 64.6823C82.3304 64.065 82.6571 63.6436 83.1464 63.6063C83.4131 63.6023 83.6811 63.6023 83.9491 63.5996C84.2171 63.597 84.4864 63.5943 84.7517 63.5916C85.0224 63.5916 85.2904 63.589 85.5584 63.5863C85.8211 63.585 86.0931 63.5836 86.3611 63.5836C86.8478 63.6103 87.1838 64.0263 87.2104 64.641L87.2278 67.633C87.2078 68.2503 86.8797 68.6717 86.3931 68.7063C86.1237 68.709 85.8571 68.709 85.5891 68.7116C85.3224 68.7156 85.0531 68.717 84.7851 68.7196C84.5184 68.721 84.2491 68.7236 83.9837 68.7263C83.7144 68.729 83.4451 68.7317 83.1784 68.7343ZM75.7051 68.8757C75.2171 68.857 74.8837 68.4436 74.8544 67.8236L74.8304 64.813C74.8504 64.193 75.1784 63.7663 75.6651 63.7236C75.9331 63.7196 76.2011 63.7143 76.4704 63.709C76.7371 63.7037 77.0038 63.697 77.2718 63.693C77.5411 63.6876 77.8078 63.6823 78.0771 63.677C78.3451 63.6716 78.6118 63.669 78.8811 63.665C79.3691 63.6876 79.7024 64.101 79.7304 64.717L79.7517 67.7196C79.7344 68.3383 79.4051 68.7637 78.9184 68.8023C78.6504 68.809 78.3824 68.8156 78.1144 68.8196C77.8464 68.8263 77.5797 68.8317 77.3117 68.8383C77.0424 68.8437 76.7744 68.849 76.5078 68.857C76.2384 68.8623 75.9731 68.869 75.7051 68.8757ZM68.2331 69.1143C67.7464 69.1023 67.4117 68.6903 67.3811 68.0663L67.3557 65.033C67.3744 64.409 67.6997 63.9743 68.1851 63.9276C68.4544 63.9183 68.7211 63.909 68.9877 63.901C69.2571 63.8916 69.5251 63.8837 69.7917 63.8757C70.0584 63.8677 70.3264 63.8596 70.5957 63.8516C70.8624 63.8436 71.1317 63.8383 71.3971 63.8316C71.8851 63.8463 72.2224 64.261 72.2517 64.881L72.2784 67.8956C72.2571 68.5196 71.9291 68.9517 71.4398 68.9997C71.1731 69.0077 70.9078 69.0183 70.6411 69.0276C70.3718 69.037 70.1051 69.045 69.8371 69.0543C69.5691 69.0636 69.3011 69.073 69.0358 69.0863C68.7664 69.0943 68.5011 69.105 68.2331 69.1143ZM61.0971 69.441C60.7384 69.4277 60.4864 69.013 60.4637 68.381L60.4304 65.3236C60.4438 64.6903 60.6838 64.253 61.0411 64.2063L61.2691 64.1956L61.4944 64.185L61.7198 64.177L61.9451 64.1663C62.1077 64.1596 62.2731 64.1516 62.4371 64.145C62.6011 64.1383 62.7677 64.1303 62.9331 64.1223C63.0971 64.117 63.2638 64.1103 63.4304 64.105C63.5931 64.097 63.7597 64.089 63.9251 64.0823C64.4104 64.097 64.7464 64.5076 64.7771 65.1303L64.8038 68.1716C64.7878 68.8023 64.4597 69.2423 63.9757 69.297C63.8091 69.305 63.6451 69.313 63.4811 69.321C63.3157 69.329 63.1504 69.3356 62.9837 69.3436C62.8211 69.3516 62.6558 69.3597 62.4904 69.3677C62.3264 69.3757 62.1598 69.3836 61.9958 69.393L61.7718 69.4037L61.5477 69.417L61.3224 69.4276L61.0971 69.441ZM55.3224 69.7783C54.9264 69.7716 54.6517 69.3556 54.6237 68.721L54.5904 65.6303C54.6024 64.9957 54.8664 64.5503 55.2624 64.4956C55.4811 64.4836 55.6918 64.4716 55.9078 64.4596C56.1184 64.4476 56.3318 64.4356 56.5464 64.425C56.7598 64.4143 56.9704 64.4036 57.1797 64.3916C57.3904 64.3823 57.5984 64.3703 57.8064 64.361C58.1864 64.373 58.4464 64.789 58.4731 65.4183L58.5038 68.4876C58.4904 69.1303 58.2451 69.565 57.8651 69.6196C57.6557 69.633 57.4478 69.645 57.2384 69.657C57.0278 69.669 56.8171 69.6836 56.6024 69.697C56.3904 69.709 56.1784 69.721 55.9651 69.7357C55.7544 69.749 55.5371 69.7636 55.3224 69.7783ZM49.0691 70.2236C48.6451 70.2236 48.3531 69.8076 48.3224 69.1663L48.2851 66.0397C48.2984 65.3957 48.5798 64.941 49.0038 64.8783C49.2331 64.8623 49.4651 64.8463 49.6944 64.8316C49.9264 64.8183 50.1544 64.8023 50.3837 64.7863C50.6131 64.7716 50.8411 64.7583 51.0691 64.7423C51.2958 64.729 51.5224 64.7143 51.7464 64.701C52.1544 64.709 52.4371 65.1223 52.4664 65.761L52.5011 68.861C52.4878 69.5023 52.2144 69.9556 51.8091 70.0156C51.5851 70.0343 51.3584 70.049 51.1317 70.0663C50.9051 70.0837 50.6784 70.101 50.4464 70.117C50.2184 70.1356 49.9891 70.1517 49.7597 70.1717C49.5304 70.1877 49.2984 70.205 49.0691 70.2236ZM42.4078 70.797C41.9598 70.8077 41.6477 70.3903 41.6144 69.7397L41.5744 66.5623C41.5878 65.909 41.8864 65.441 42.3344 65.3703C42.5797 65.3516 42.8211 65.3316 43.0691 65.313C43.3118 65.2943 43.5558 65.2743 43.7984 65.2556C44.0424 65.2356 44.2824 65.217 44.5277 65.1983C44.7664 65.1796 45.0064 65.1623 45.2464 65.1436C45.6811 65.1436 45.9837 65.5597 46.0144 66.2063L46.0544 69.3463C46.0411 69.9983 45.7491 70.4637 45.3171 70.5343C45.0757 70.5543 44.8371 70.5756 44.5958 70.597C44.3544 70.6183 44.1118 70.641 43.8718 70.6623C43.6251 70.685 43.3824 70.7077 43.1398 70.729C42.8958 70.7503 42.6504 70.7743 42.4078 70.797ZM35.3797 71.5236C34.9117 71.545 34.5877 71.1276 34.5517 70.4636L34.5064 67.229C34.5198 66.5596 34.8318 66.0756 35.3038 65.9956C35.5611 65.9716 35.8171 65.945 36.0731 65.9223C36.3291 65.8983 36.5851 65.873 36.8424 65.849C37.0957 65.8263 37.3491 65.8023 37.6038 65.7783C37.8571 65.7556 38.1117 65.7316 38.3637 65.7103C38.8237 65.7023 39.1451 66.1197 39.1731 66.7743L39.2184 69.9703C39.2064 70.6303 38.9011 71.1103 38.4384 71.193C38.1864 71.217 37.9357 71.2423 37.6811 71.2717C37.4277 71.2983 37.1731 71.3263 36.9184 71.3543C36.6624 71.381 36.4091 71.409 36.1517 71.4383C35.8944 71.4663 35.6371 71.4956 35.3797 71.5236ZM28.0331 72.4357C27.5451 72.4677 27.2051 72.0503 27.1704 71.3703L27.1158 68.057C27.1318 67.3743 27.4571 66.873 27.9451 66.781C28.2131 66.7503 28.4838 66.721 28.7491 66.689C29.0184 66.6596 29.2851 66.629 29.5518 66.5983C29.8198 66.5676 30.0851 66.5397 30.3477 66.5077C30.6157 66.4797 30.8784 66.4503 31.1437 66.4223C31.6237 66.4063 31.9544 66.8263 31.9891 67.4956L32.0398 70.753C32.0264 71.429 31.7077 71.925 31.2264 72.0183C30.9651 72.0543 30.6998 72.0863 30.4331 72.1183C30.1704 72.153 29.9051 72.1876 29.6371 72.2236C29.3718 72.257 29.1064 72.2916 28.8371 72.3263C28.5718 72.3623 28.3037 72.3983 28.0331 72.4357ZM20.3891 73.569C19.8757 73.6143 19.5197 73.1956 19.4837 72.4983L19.4237 69.0943C19.4411 68.3876 19.7798 67.865 20.2891 67.7583C20.5678 67.7196 20.8464 67.6823 21.1264 67.6436C21.4051 67.605 21.6824 67.5676 21.9571 67.529C22.2344 67.493 22.5091 67.4556 22.7891 67.4196C23.0638 67.3836 23.3397 67.3463 23.6117 67.3103C24.1131 67.2836 24.4571 67.7063 24.4958 68.3903L24.5477 71.7316C24.5371 72.425 24.2051 72.941 23.7078 73.0503C23.4318 73.0916 23.1571 73.133 22.8811 73.1743C22.6077 73.2183 22.3304 73.261 22.0518 73.3023C21.7771 73.3463 21.4984 73.3877 21.2224 73.4357C20.9411 73.4797 20.6637 73.5237 20.3891 73.569ZM12.4424 74.9743C11.9157 75.041 11.5464 74.617 11.5038 73.8983L11.4411 70.3757C11.4558 69.649 11.8051 69.0957 12.3331 68.9703C12.6211 68.9223 12.9131 68.873 13.2024 68.829C13.4904 68.7796 13.7784 68.7343 14.0691 68.6876C14.3544 68.641 14.6451 68.5983 14.9304 68.5503C15.2171 68.5076 15.5024 68.461 15.7878 68.417C16.3064 68.3756 16.6678 68.8023 16.7051 69.505L16.7664 72.945C16.7518 73.661 16.4104 74.2036 15.8944 74.333C15.6051 74.3836 15.3211 74.4356 15.0358 74.4876C14.7491 74.5423 14.4624 74.593 14.1744 74.6463C13.8838 74.701 13.5984 74.753 13.3117 74.809C13.0224 74.8623 12.7304 74.9183 12.4424 74.9743ZM4.19708 76.7196C3.64775 76.8076 3.26375 76.3836 3.22241 75.6343L3.15042 71.969C3.16242 71.2117 3.52643 70.6223 4.07443 70.4757C4.37443 70.417 4.67839 70.3543 4.97839 70.297C5.27973 70.2397 5.57973 70.1823 5.87573 70.125C6.1784 70.0676 6.47578 70.0103 6.77444 69.9543C7.07178 69.8983 7.3691 69.8436 7.6651 69.789C8.20377 69.7263 8.57975 70.157 8.61975 70.8876L8.6864 74.453C8.6704 75.193 8.31839 75.7716 7.77972 75.9223C7.48506 75.985 7.18774 76.0503 6.88907 76.1143C6.59307 76.1783 6.29443 76.2436 5.9971 76.3116C5.69843 76.3783 5.39841 76.445 5.09708 76.513C4.79841 76.581 4.49975 76.6516 4.19708 76.7196Z" fill="white"/>
</svg>
