<svg width="321" height="94" viewBox="0 0 321 94" fill="none" xmlns="http://www.w3.org/2000/svg">
<path d="M2.86613 2.08837L0 92.4644C0.949467 92.619 2.1848 92.7684 3.71707 92.9044C5.26133 93.0417 7.1056 93.167 9.24893 93.2737C11.4104 93.3804 13.8733 93.4684 16.6443 93.5377C19.426 93.6044 22.5041 93.6484 25.8817 93.6644C29.5389 93.6804 33.5223 93.667 37.8239 93.6124C42.1109 93.5564 46.69 93.4657 51.5432 93.331C56.3489 93.2004 61.3973 93.0284 66.6604 92.8097C71.8375 92.5937 77.19 92.3377 82.6875 92.0364C89.4599 91.6657 95.7151 91.263 101.521 90.843C107.155 90.4377 112.352 90.0177 117.196 89.5937C121.884 89.1817 126.238 88.771 130.343 88.367C134.316 87.9737 138.059 87.591 141.652 87.219C144.832 86.8924 147.884 86.5777 150.875 86.2804C153.787 85.995 156.65 85.723 159.522 85.4737C162.328 85.2284 165.152 85.0044 168.064 84.8017C170.916 84.6044 173.863 84.4297 176.959 84.279C181.18 84.075 185.506 83.9003 189.883 83.7577C194.196 83.615 198.587 83.5004 203.007 83.4137C207.387 83.3284 211.82 83.2697 216.262 83.235C220.684 83.203 225.143 83.195 229.592 83.215C232.09 83.2257 234.592 83.2417 237.092 83.271C239.594 83.299 242.098 83.3337 244.595 83.3777C247.103 83.423 249.606 83.4737 252.103 83.5377C254.607 83.599 257.108 83.671 259.6 83.7497C263.474 83.8777 267.767 84.0417 272.306 84.2497C276.931 84.467 281.852 84.7364 286.91 85.0697C292.119 85.415 297.54 85.8337 303.015 86.3484C308.736 86.8884 314.616 87.5377 320.52 88.331L319.034 13.4657C313.242 14.971 307.466 16.195 301.835 17.2004C296.442 18.159 291.103 18.935 285.962 19.5657C280.97 20.1763 276.11 20.6564 271.542 21.0364C267.054 21.4097 262.81 21.6897 258.975 21.8977C256.514 22.0337 254.038 22.1484 251.559 22.2444C249.088 22.343 246.612 22.4217 244.131 22.4844C241.659 22.547 239.18 22.591 236.7 22.619C234.227 22.6484 231.75 22.6617 229.275 22.6564C224.868 22.6484 220.455 22.5884 216.076 22.4777C211.675 22.367 207.286 22.2044 202.95 21.9897C198.574 21.7737 194.228 21.5017 189.958 21.1764C185.624 20.8457 181.343 20.4577 177.168 20.0124C174.103 19.6817 171.194 19.3044 168.372 18.8857C165.499 18.4564 162.704 17.9844 159.932 17.471C157.095 16.9484 154.272 16.383 151.398 15.7857C148.45 15.171 145.44 14.5204 142.306 13.843C138.767 13.0764 135.084 12.279 131.168 11.4657C127.13 10.627 122.847 9.76969 118.234 8.91636C113.47 8.03103 108.359 7.15101 102.823 6.29902C97.1129 5.41635 90.9703 4.56168 84.3109 3.76435C78.9156 3.11635 73.65 2.55904 68.5624 2.08571C63.3921 1.60437 58.4323 1.21502 53.7099 0.905691C48.9389 0.595026 44.4364 0.369707 40.2203 0.221708C35.9843 0.0723756 32.0609 0.00168223 28.4599 0.000348906C25.1337 -0.0049844 22.0989 0.049706 19.3556 0.152372C16.6223 0.256372 14.19 0.405682 12.0504 0.595014C9.928 0.78168 8.10147 1.00701 6.56867 1.26168C5.0484 1.51234 3.81667 1.7937 2.86613 2.08837ZM0.362933 81.0177C0.5364 81.2524 0.621333 81.7803 0.619733 82.5937L0.475466 87.155C0.427999 87.9577 0.308799 88.4604 0.119733 88.651L0.362933 81.0177ZM5.39426 81.2804C5.84266 81.3537 6.12653 82.0177 6.11973 82.9737L5.97387 87.6164C5.926 88.5697 5.59786 89.1964 5.15 89.2164C4.9124 89.2004 4.67706 89.1844 4.44946 89.167C4.22026 89.151 3.99893 89.1324 3.7796 89.1164C3.56667 89.1004 3.35667 89.0804 3.15093 89.0644C2.94787 89.047 2.74893 89.0284 2.5588 89.0124C2.21507 88.9337 2.00933 88.2857 2.02227 87.323L2.1676 82.731C2.21187 81.7737 2.45987 81.1617 2.8036 81.135C2.99733 81.1484 3.1952 81.1617 3.3968 81.1737C3.60147 81.187 3.81347 81.1977 4.0296 81.211C4.24373 81.223 4.46707 81.2337 4.69267 81.247C4.92187 81.2604 5.1552 81.271 5.39426 81.2804ZM13.7015 81.559C14.3577 81.6217 14.788 82.2897 14.7916 83.2577L14.6572 87.9577C14.5895 88.9217 14.1249 89.5657 13.4651 89.5964C13.1077 89.5857 12.7604 89.575 12.4156 89.5617C12.0719 89.5524 11.7385 89.5404 11.4061 89.5284C11.0755 89.515 10.7509 89.5017 10.4333 89.4897C10.1181 89.479 9.8056 89.4657 9.49893 89.451C8.94946 89.379 8.60667 88.727 8.60773 87.7524L8.75 83.0857C8.8072 82.1097 9.1864 81.4844 9.74053 81.4524C10.0443 81.463 10.3567 81.471 10.676 81.4817C10.9937 81.4897 11.3167 81.5004 11.6457 81.507C11.9755 81.5177 12.3124 81.5257 12.6552 81.535C12.9973 81.5417 13.3447 81.5497 13.7015 81.559ZM25.2067 81.7057C26.3889 81.7817 26.4937 83.0177 26.4957 83.395L26.3661 88.1164C26.3176 88.8937 25.926 89.739 24.9833 89.7884C24.5129 89.7884 24.0504 89.783 23.5937 89.7804C23.138 89.7764 22.6889 89.7737 22.2437 89.7684C21.7984 89.7617 21.3609 89.7577 20.926 89.751C20.4921 89.747 20.0651 89.7417 19.6432 89.7337C18.8817 89.6724 18.402 89.0204 18.3905 88.0364L18.5276 83.3257C18.5937 82.3377 19.1109 81.703 19.8765 81.6617C20.2952 81.667 20.7239 81.671 21.1561 81.6764C21.5875 81.679 22.0244 81.6844 22.4671 81.6884C22.9156 81.691 23.3629 81.695 23.8187 81.6977C24.276 81.7017 24.7385 81.7044 25.2067 81.7057ZM35.1728 81.711C35.8463 81.7577 36.288 82.4137 36.2995 83.3857L36.176 88.0964C36.1171 89.0644 35.6421 89.7257 34.9619 89.7804C34.5927 89.783 34.2255 89.7857 33.8593 89.7884C33.4947 89.7897 33.1328 89.791 32.7744 89.7937C32.4113 89.7937 32.0556 89.7964 31.6995 89.7964C31.3437 89.799 30.9921 89.8004 30.6432 89.8004C30.0041 89.751 29.6041 89.1097 29.5979 88.1244L29.7255 83.403C29.7837 82.4137 30.2171 81.7684 30.8593 81.719C31.2099 81.719 31.5599 81.719 31.9124 81.719C32.2723 81.719 32.6265 81.7164 32.9869 81.7164C33.3437 81.7164 33.7067 81.715 34.0719 81.7137C34.4364 81.7137 34.8056 81.711 35.1728 81.711ZM46.0895 81.619C46.8395 81.6617 47.3343 82.307 47.3479 83.271L47.2353 87.9484C47.1728 88.911 46.6457 89.575 45.8921 89.6377C45.4833 89.6457 45.0719 89.6524 44.6656 89.659C44.2561 89.667 43.85 89.6737 43.4495 89.679C43.0452 89.687 42.6443 89.6924 42.2421 89.699C41.8447 89.7057 41.4495 89.711 41.0556 89.7164C40.3385 89.679 39.8681 89.0284 39.8577 88.0604L39.9755 83.3564C40.038 82.387 40.538 81.723 41.2561 81.671C41.65 81.6684 42.0484 81.6643 42.4452 81.659C42.8437 81.6563 43.2421 81.651 43.6457 81.6484C44.0484 81.643 44.4547 81.639 44.8593 81.635C45.2667 81.6297 45.678 81.6257 46.0895 81.619ZM58.0771 81.4297C58.8889 81.463 59.428 82.099 59.4463 83.0497L59.3437 87.667C59.2848 88.6163 58.7151 89.279 57.9 89.351C57.4547 89.3644 57.0077 89.3777 56.5676 89.3884C56.1233 89.4004 55.6812 89.4124 55.2405 89.4257C54.8036 89.4364 54.3661 89.4484 53.928 89.4604C53.4937 89.4697 53.0588 89.4817 52.6249 89.4924C51.8427 89.4617 51.3271 88.8257 51.3099 87.8697L51.4176 83.2057C51.4853 82.231 52.0167 81.5857 52.8109 81.523C53.2437 81.5177 53.676 81.5097 54.1145 81.5017C54.5484 81.495 54.9853 81.487 55.4228 81.4804C55.8619 81.4737 56.3036 81.463 56.7457 81.455C57.1875 81.447 57.6317 81.4377 58.0771 81.4297ZM70.8932 81.135C71.7525 81.1617 72.3271 81.779 72.35 82.711L72.2593 87.2417C72.1963 88.1764 71.5989 88.8337 70.7333 88.9137C70.2629 88.9337 69.7932 88.9497 69.3239 88.9684C68.8556 88.987 68.3889 89.0017 67.9228 89.0204C67.4567 89.039 66.9905 89.055 66.5276 89.071C66.064 89.087 65.6 89.1044 65.1389 89.119C64.3036 89.1017 63.7489 88.4817 63.7255 87.5364L63.8255 82.9457C63.8889 81.9844 64.4556 81.343 65.3056 81.2737C65.7656 81.263 66.2276 81.2537 66.6911 81.2417C67.1552 81.2284 67.6181 81.219 68.0859 81.2084C68.5495 81.195 69.0181 81.1844 69.4885 81.171C69.9531 81.159 70.4228 81.1484 70.8932 81.135ZM84.0276 80.7444C84.7525 80.7657 85.2317 81.367 85.2541 82.2804L85.1728 86.7044C85.1213 87.6164 84.6161 88.2577 83.8869 88.3404L83.6067 88.3524L83.3219 88.367L83.0389 88.3804L82.7541 88.3937C82.3817 88.411 82.0129 88.4284 81.6421 88.4457C81.2733 88.4644 80.9 88.4817 80.5328 88.4977C80.1624 88.515 79.7932 88.531 79.4228 88.5497C79.0556 88.5644 78.6864 88.5817 78.3176 88.599C77.4463 88.5897 76.8681 87.987 76.8411 87.0644L76.928 82.567C76.9905 81.6257 77.5791 80.995 78.4635 80.9204C78.8323 80.9084 79.2015 80.8977 79.5667 80.887C79.9364 80.875 80.3088 80.8644 80.6728 80.851C81.0432 80.8404 81.414 80.8284 81.7848 80.8177C82.152 80.8044 82.5244 80.791 82.8943 80.7804L83.1796 80.771L83.4619 80.7603L83.7437 80.7524L84.0276 80.7444ZM94.6963 80.3564C95.3515 80.3777 95.788 80.963 95.8056 81.8524L95.7353 86.1764C95.6889 87.0644 95.2333 87.6924 94.5755 87.7764C94.2099 87.7964 93.8437 87.8177 93.4765 87.8377C93.1077 87.8577 92.7385 87.8804 92.3671 87.899C91.9921 87.919 91.6197 87.9404 91.2421 87.9617C90.8681 87.9817 90.4905 88.0017 90.1109 88.0204C89.4156 88.0124 88.9547 87.427 88.9375 86.5257L89.0129 82.135C89.0651 81.2284 89.5468 80.599 90.2369 80.5257C90.6213 80.5123 90.9947 80.4977 91.3723 80.4857C91.7457 80.471 92.1213 80.4564 92.4937 80.443C92.8619 80.427 93.2307 80.4137 93.6015 80.399C93.9687 80.3857 94.3333 80.3724 94.6963 80.3564ZM104.343 79.9524C104.944 79.9684 105.326 80.5257 105.343 81.4084L105.283 85.6217C105.24 86.4897 104.83 87.1044 104.234 87.187C103.904 87.2084 103.574 87.2284 103.242 87.2524C102.91 87.271 102.575 87.2924 102.241 87.315C101.904 87.335 101.564 87.3564 101.228 87.3804C100.887 87.3977 100.548 87.4204 100.203 87.4417C99.5755 87.4377 99.1572 86.8657 99.1389 85.987L99.2067 81.7017C99.2509 80.8177 99.6889 80.199 100.319 80.127C100.66 80.1123 101.001 80.099 101.341 80.0844C101.677 80.0697 102.018 80.055 102.35 80.039C102.686 80.0257 103.022 80.0123 103.351 79.995C103.683 79.9817 104.014 79.9657 104.343 79.9524ZM113.056 79.539C113.592 79.5537 113.951 80.1097 113.967 80.9524L113.91 85.059C113.874 85.9057 113.502 86.5044 112.959 86.5884C112.66 86.6097 112.363 86.6297 112.064 86.651C111.764 86.6724 111.46 86.695 111.158 86.7164C110.856 86.739 110.551 86.7604 110.243 86.7817C109.936 86.8017 109.626 86.823 109.318 86.8457C108.751 86.843 108.376 86.2857 108.358 85.4284L108.418 81.2524C108.462 80.3897 108.852 79.7857 109.419 79.7164C109.728 79.703 110.036 79.687 110.343 79.671C110.648 79.6564 110.955 79.643 111.256 79.627C111.559 79.6123 111.86 79.599 112.16 79.583C112.459 79.567 112.756 79.5537 113.056 79.539ZM120.947 79.1217C121.432 79.139 121.756 79.679 121.772 80.5004L121.722 84.4977C121.687 85.323 121.348 85.9057 120.862 85.987C120.591 86.007 120.319 86.0284 120.05 86.0524C119.778 86.0724 119.502 86.0937 119.228 86.1137C118.951 86.1377 118.676 86.159 118.398 86.179C118.12 86.2017 117.838 86.223 117.56 86.243C117.047 86.2404 116.706 85.7003 116.691 84.8657L116.743 80.7963C116.782 79.9564 117.134 79.3697 117.647 79.299C117.926 79.2857 118.207 79.271 118.486 79.2564C118.764 79.2417 119.039 79.2257 119.314 79.2137C119.588 79.195 119.863 79.1817 120.134 79.167C120.406 79.151 120.676 79.139 120.947 79.1217ZM128.122 78.715C128.567 78.7284 128.86 79.2564 128.875 80.0564L128.832 83.947C128.798 84.7524 128.492 85.3204 128.048 85.3977C127.799 85.419 127.556 85.4404 127.307 85.459C127.056 85.4817 126.808 85.5017 126.558 85.523C126.306 85.5444 126.056 85.5644 125.8 85.5857C125.547 85.607 125.292 85.627 125.038 85.6484C124.571 85.647 124.262 85.119 124.246 84.307L124.294 80.347C124.327 79.527 124.65 78.955 125.118 78.8897C125.371 78.875 125.626 78.859 125.879 78.8457C126.131 78.831 126.382 78.8164 126.632 78.8017C126.884 78.7857 127.131 78.7737 127.38 78.7577C127.628 78.743 127.876 78.7284 128.122 78.715ZM134.702 78.3204C135.118 78.335 135.383 78.8337 135.398 79.6243L135.36 83.4164C135.332 84.1977 135.048 84.7524 134.636 84.8257C134.41 84.8457 134.183 84.867 133.955 84.8884C133.727 84.9057 133.496 84.927 133.266 84.947C133.035 84.9684 132.804 84.9884 132.574 85.0097C132.339 85.0284 132.106 85.0497 131.871 85.0684C131.443 85.0657 131.158 84.5523 131.143 83.763L131.183 79.9057C131.215 79.1097 131.514 78.5524 131.942 78.487C132.176 78.4737 132.407 78.4577 132.642 78.4457C132.874 78.431 133.103 78.4177 133.335 78.403C133.564 78.3897 133.792 78.375 134.022 78.3617C134.248 78.3457 134.478 78.3337 134.702 78.3204ZM140.8 77.943C141.188 77.955 141.438 78.4457 141.451 79.2164L141.415 82.911C141.39 83.671 141.126 84.2097 140.743 84.2804C140.531 84.3017 140.318 84.323 140.104 84.339C139.894 84.359 139.68 84.3777 139.467 84.3977C139.25 84.4163 139.036 84.4364 138.82 84.455C138.606 84.475 138.39 84.4924 138.171 84.5124C137.775 84.5097 137.512 84.0097 137.499 83.239L137.535 79.4817C137.562 78.7057 137.838 78.1644 138.231 78.1017C138.45 78.0884 138.666 78.075 138.88 78.059C139.095 78.047 139.311 78.0337 139.524 78.0204C139.738 78.007 139.952 77.995 140.166 77.9817C140.378 77.967 140.588 77.955 140.8 77.943ZM146.959 77.559C147.355 77.5697 147.619 78.0564 147.632 78.799L147.603 82.3923C147.576 83.1323 147.306 83.659 146.91 83.731C146.691 83.7497 146.475 83.7684 146.258 83.7884C146.038 83.807 145.819 83.8284 145.6 83.8457C145.382 83.867 145.16 83.887 144.938 83.9057C144.718 83.927 144.494 83.9457 144.272 83.9657C143.868 83.963 143.595 83.4777 143.58 82.7283L143.614 79.067C143.639 78.3137 143.92 77.7857 144.327 77.7217C144.548 77.707 144.77 77.695 144.994 77.679C145.211 77.667 145.431 77.6537 145.652 77.6404C145.871 77.6257 146.088 77.6124 146.308 77.599C146.526 77.5857 146.743 77.5697 146.959 77.559ZM152.868 77.203C153.242 77.219 153.492 77.6924 153.507 78.4137L153.483 81.9177C153.458 82.6377 153.2 83.1484 152.822 83.219C152.615 83.235 152.407 83.2524 152.199 83.2697C151.991 83.2884 151.784 83.3057 151.572 83.323C151.366 83.3404 151.155 83.3604 150.944 83.3777C150.735 83.3937 150.524 83.4123 150.316 83.4323C149.928 83.427 149.674 82.9524 149.66 82.223L149.686 78.659C149.715 77.9257 149.978 77.411 150.36 77.351C150.57 77.3377 150.782 77.3257 150.991 77.3124C151.202 77.299 151.41 77.2884 151.619 77.2764C151.827 77.263 152.035 77.2497 152.242 77.239C152.451 77.2257 152.658 77.2164 152.868 77.203ZM158.567 76.883C158.93 76.8977 159.178 77.3644 159.194 78.067L159.174 81.4884C159.15 82.1924 158.898 82.6897 158.53 82.7537C158.327 82.771 158.124 82.7844 157.92 82.8017C157.718 82.8177 157.516 82.8337 157.314 82.8484C157.111 82.8644 156.906 82.883 156.704 82.8977C156.498 82.9137 156.294 82.931 156.092 82.947C155.723 82.9404 155.472 82.4763 155.458 81.763L155.482 78.2884C155.507 77.5724 155.762 77.0724 156.131 77.015C156.336 77.0017 156.538 76.9924 156.743 76.9817C156.944 76.9697 157.146 76.9577 157.351 76.947C157.554 76.9377 157.755 76.9244 157.958 76.915C158.162 76.903 158.363 76.8924 158.567 76.883ZM164.196 76.5964C164.564 76.6137 164.811 77.0723 164.826 77.7603L164.81 81.1097C164.786 81.799 164.532 82.283 164.167 82.343C163.963 82.3564 163.762 82.3724 163.559 82.3857C163.358 82.3977 163.156 82.4123 162.955 82.427C162.754 82.4403 162.551 82.4524 162.347 82.4684C162.15 82.4844 161.947 82.499 161.743 82.5124C161.378 82.5044 161.128 82.0497 161.116 81.351L161.134 77.955C161.159 77.255 161.407 76.7684 161.779 76.7137C161.978 76.7057 162.18 76.695 162.379 76.6844C162.582 76.6764 162.787 76.667 162.986 76.6564C163.188 76.6457 163.39 76.635 163.59 76.6243C163.792 76.615 163.996 76.607 164.196 76.5964ZM169.891 76.351C170.27 76.3724 170.524 76.823 170.543 77.4977L170.524 80.7817C170.504 81.4577 170.244 81.9324 169.866 81.987C169.662 82.0004 169.455 82.0097 169.248 82.023C169.043 82.0337 168.836 82.047 168.631 82.059C168.424 82.0697 168.219 82.083 168.015 82.0963C167.81 82.107 167.606 82.119 167.402 82.1323C167.03 82.1217 166.783 81.671 166.768 80.9923L166.783 77.667C166.806 76.9777 167.059 76.5017 167.428 76.4524C167.634 76.443 167.838 76.435 168.042 76.427C168.248 76.4163 168.451 76.4084 168.658 76.4004C168.86 76.3924 169.067 76.383 169.272 76.3777C169.48 76.367 169.686 76.359 169.891 76.351ZM175.786 76.1484C176.18 76.171 176.444 76.6137 176.463 77.279L176.452 80.5097C176.431 81.1737 176.163 81.6377 175.767 81.6897C175.551 81.6977 175.332 81.7097 175.122 81.719C174.904 81.7284 174.688 81.739 174.476 81.7497C174.259 81.7577 174.047 81.7684 173.835 81.779C173.622 81.7884 173.408 81.799 173.198 81.8097C172.816 81.7937 172.555 81.3537 172.538 80.6817L172.552 77.4177C172.574 76.7337 172.831 76.279 173.218 76.231C173.431 76.223 173.642 76.215 173.855 76.2084C174.07 76.2017 174.282 76.195 174.496 76.187C174.71 76.1804 174.924 76.1737 175.136 76.167C175.354 76.1617 175.57 76.155 175.786 76.1484ZM182.36 75.9697C182.8 75.995 183.096 76.4324 183.119 77.0857L183.111 80.2697C183.084 80.9244 182.788 81.3777 182.347 81.4297C182.106 81.4377 181.864 81.4457 181.624 81.455C181.384 81.4617 181.142 81.4737 180.9 81.4817C180.66 81.4897 180.419 81.5004 180.176 81.507C179.939 81.5177 179.696 81.5257 179.458 81.5364C179.019 81.5204 178.726 81.083 178.707 80.423L178.715 77.2084C178.739 76.5364 179.032 76.091 179.472 76.0444C179.714 76.0364 179.954 76.031 180.194 76.0243C180.435 76.0203 180.675 76.0124 180.915 76.007C181.154 76.0004 181.398 75.995 181.639 75.987C181.876 75.9817 182.119 75.9764 182.36 75.9697ZM189.126 75.8217C189.567 75.8457 189.867 76.279 189.887 76.927L189.883 80.067C189.86 80.7137 189.56 81.1617 189.116 81.207C188.874 81.2137 188.631 81.2203 188.387 81.2283C188.144 81.2363 187.9 81.2444 187.66 81.251C187.412 81.259 187.172 81.2657 186.928 81.2737C186.686 81.2804 186.442 81.2883 186.202 81.2963C185.759 81.279 185.459 80.8457 185.439 80.195L185.446 77.0257C185.467 76.3723 185.77 75.9244 186.212 75.8804C186.455 75.875 186.696 75.8724 186.939 75.867C187.18 75.8604 187.422 75.8537 187.668 75.851C187.907 75.8457 188.152 75.8404 188.396 75.835C188.639 75.831 188.882 75.8257 189.126 75.8217ZM195.944 75.703C196.388 75.7257 196.692 76.159 196.714 76.799L196.711 79.9084C196.692 80.5484 196.387 80.987 195.942 81.031C195.694 81.0363 195.451 81.0404 195.207 81.047C194.96 81.0537 194.716 81.059 194.472 81.0643C194.228 81.0697 193.98 81.0764 193.738 81.083C193.494 81.0884 193.25 81.0937 193.006 81.1017C192.559 81.0804 192.259 80.651 192.236 80.007L192.239 76.8804C192.264 76.223 192.559 75.791 193.01 75.7497C193.252 75.747 193.496 75.7417 193.74 75.739C193.986 75.7337 194.231 75.7283 194.474 75.7257C194.718 75.723 194.96 75.719 195.207 75.7137C195.454 75.711 195.698 75.7084 195.944 75.703ZM202.807 75.6137C203.258 75.643 203.563 76.0697 203.584 76.703L203.59 79.7844C203.568 80.419 203.26 80.8537 202.811 80.8923C202.564 80.8977 202.318 80.9004 202.071 80.9057C201.824 80.9084 201.579 80.9137 201.335 80.919C201.087 80.9244 200.84 80.9297 200.592 80.9323C200.347 80.9377 200.103 80.9404 199.855 80.947C199.407 80.9244 199.106 80.4977 199.084 79.8617L199.079 76.763C199.103 76.1244 199.404 75.6857 199.854 75.6497C200.098 75.6457 200.346 75.643 200.591 75.639C200.84 75.6364 201.082 75.6324 201.328 75.6324C201.575 75.627 201.82 75.6257 202.068 75.6217C202.314 75.619 202.562 75.6164 202.807 75.6137ZM209.708 75.5524C210.159 75.5804 210.463 76.007 210.488 76.6377L210.496 79.7004C210.474 80.3283 210.171 80.759 209.719 80.795C209.47 80.799 209.226 80.8017 208.975 80.8044C208.727 80.807 208.479 80.8097 208.231 80.815C207.983 80.8177 207.736 80.8204 207.49 80.823C207.239 80.8257 206.994 80.831 206.744 80.8337C206.296 80.807 205.991 80.383 205.967 79.7524L205.96 76.6764C205.986 76.0444 206.291 75.6097 206.738 75.575C206.986 75.5724 207.234 75.5697 207.48 75.5684C207.728 75.5657 207.975 75.5643 208.224 75.5617C208.47 75.5617 208.718 75.559 208.966 75.5564C209.212 75.555 209.459 75.555 209.708 75.5524ZM216.634 75.515C217.086 75.5484 217.392 75.9737 217.418 76.603L217.428 79.6497C217.41 80.2764 217.102 80.7044 216.65 80.7364C216.4 80.739 216.154 80.739 215.904 80.7417C215.655 80.7444 215.407 80.7444 215.158 80.747C214.91 80.747 214.66 80.7497 214.411 80.7524C214.163 80.7524 213.914 80.755 213.668 80.7577C213.215 80.7283 212.908 80.3044 212.884 79.6764L212.875 76.6217C212.898 75.995 213.202 75.5643 213.652 75.5283C213.903 75.5283 214.148 75.5283 214.398 75.5257C214.647 75.5257 214.892 75.523 215.142 75.523C215.392 75.5204 215.64 75.5204 215.888 75.519C216.136 75.5177 216.387 75.5177 216.634 75.515ZM223.579 75.507C224.032 75.5404 224.343 75.9657 224.366 76.5937L224.382 79.635C224.359 80.2603 224.056 80.6817 223.602 80.7164C223.352 80.7164 223.103 80.7164 222.854 80.7164C222.603 80.7164 222.356 80.7164 222.106 80.719C221.858 80.7164 221.61 80.719 221.362 80.719C221.112 80.719 220.863 80.719 220.614 80.719C220.158 80.6897 219.85 80.267 219.824 79.6404L219.812 76.5964C219.835 75.9684 220.14 75.543 220.595 75.5097C220.843 75.5097 221.092 75.507 221.339 75.5097C221.59 75.5097 221.839 75.507 222.087 75.5097C222.335 75.507 222.584 75.5097 222.834 75.5097C223.083 75.5097 223.328 75.507 223.579 75.507ZM230.619 75.5283C231.11 75.5603 231.446 75.9897 231.475 76.6137L231.491 79.655C231.47 80.279 231.136 80.703 230.644 80.7297L230.379 80.7283H230.114L229.847 80.7257H229.579C229.414 80.7257 229.246 80.723 229.079 80.723C228.911 80.723 228.743 80.7217 228.576 80.7217C228.41 80.7217 228.243 80.7217 228.074 80.7204C227.91 80.719 227.738 80.7204 227.572 80.7204C227.12 80.687 226.811 80.2617 226.783 79.6377L226.771 76.5964C226.79 75.971 227.095 75.547 227.55 75.515C227.715 75.515 227.883 75.515 228.051 75.5177C228.215 75.5177 228.384 75.5177 228.551 75.5177C228.718 75.519 228.886 75.5204 229.052 75.5204C229.216 75.5217 229.386 75.5217 229.554 75.523L229.819 75.5257H230.087H230.352L230.619 75.5283ZM238.155 75.5777C238.644 75.6124 238.982 76.0417 239.011 76.671L239.03 79.7164C239.012 80.3404 238.68 80.763 238.188 80.791C237.916 80.7857 237.65 80.783 237.378 80.7804C237.108 80.779 236.838 80.7764 236.57 80.7737C236.298 80.771 236.027 80.7684 235.756 80.7657C235.486 80.7644 235.218 80.7603 234.947 80.759C234.455 80.723 234.12 80.295 234.09 79.671L234.071 76.6297C234.095 76.0044 234.426 75.5804 234.912 75.5524C235.184 75.5524 235.456 75.555 235.723 75.5564C235.996 75.559 236.264 75.5617 236.535 75.5643C236.803 75.5643 237.075 75.5684 237.344 75.5697C237.614 75.5724 237.884 75.575 238.155 75.5777ZM245.692 75.659C246.18 75.695 246.519 76.127 246.55 76.7603L246.574 79.8204C246.554 80.4497 246.226 80.8723 245.731 80.895C245.463 80.8897 245.191 80.887 244.922 80.8804C244.65 80.8777 244.382 80.8724 244.111 80.8684C243.84 80.8644 243.57 80.859 243.298 80.855C243.03 80.851 242.759 80.847 242.49 80.843C241.996 80.807 241.66 80.375 241.632 79.7484L241.611 76.6977C241.63 76.0684 241.959 75.6457 242.451 75.619C242.72 75.6217 242.991 75.6243 243.262 75.627C243.53 75.631 243.8 75.635 244.07 75.6377C244.342 75.6404 244.612 75.6457 244.882 75.6484C245.152 75.651 245.422 75.6537 245.692 75.659ZM253.227 75.7737C253.718 75.8124 254.055 76.2497 254.084 76.8857L254.114 79.9697C254.098 80.6017 253.764 81.0257 253.275 81.047C253.007 81.039 252.736 81.0337 252.464 81.027C252.195 81.0203 251.926 81.0137 251.658 81.007C251.386 81.0044 251.119 80.9977 250.846 80.9923C250.574 80.9857 250.306 80.979 250.035 80.9737C249.544 80.9324 249.206 80.4977 249.176 79.867L249.15 76.799C249.167 76.1684 249.498 75.743 249.99 75.719C250.262 75.723 250.53 75.7257 250.8 75.731C251.07 75.7363 251.342 75.739 251.608 75.7444C251.88 75.7497 252.147 75.755 252.42 75.7577C252.688 75.763 252.959 75.7657 253.227 75.7737ZM260.428 75.9124C260.792 75.9524 261.043 76.395 261.068 77.0364L261.103 80.1484C261.088 80.7857 260.847 81.2137 260.483 81.235L260.254 81.2283L260.026 81.2217L259.799 81.215L259.572 81.2084C259.407 81.203 259.24 81.2003 259.074 81.195C258.907 81.1897 258.74 81.1857 258.574 81.1817C258.407 81.1764 258.24 81.171 258.076 81.167C257.908 81.1617 257.742 81.1564 257.576 81.1537C257.083 81.107 256.747 80.667 256.718 80.0283L256.686 76.9404C256.707 76.3017 257.032 75.875 257.522 75.8537C257.69 75.8537 257.856 75.859 258.023 75.8644C258.19 75.8644 258.356 75.8684 258.52 75.8737C258.687 75.875 258.854 75.8804 259.02 75.883C259.188 75.8857 259.354 75.8897 259.52 75.8923L259.746 75.8977L259.971 75.9004L260.2 75.907L260.428 75.9124ZM266.259 76.0524C266.658 76.0964 266.932 76.5443 266.959 77.1923L266.996 80.3324C266.983 80.9777 266.715 81.4043 266.316 81.4243C266.1 81.4163 265.884 81.4084 265.667 81.4004C265.451 81.395 265.236 81.3857 265.019 81.3804C264.806 81.375 264.595 81.367 264.382 81.359C264.168 81.351 263.959 81.3444 263.747 81.3377C263.367 81.291 263.103 80.8484 263.079 80.2084L263.043 77.0857C263.056 76.4324 263.304 76.0124 263.688 75.9897C263.9 75.995 264.111 75.999 264.324 76.0017C264.535 76.007 264.747 76.015 264.96 76.0204C265.176 76.023 265.392 76.0297 265.606 76.0364C265.822 76.0417 266.039 76.047 266.259 76.0524ZM272.57 76.2283C272.998 76.2763 273.292 76.731 273.322 77.3884L273.362 80.567C273.348 81.2203 273.064 81.6524 272.638 81.6684C272.403 81.659 272.171 81.6484 271.936 81.639C271.706 81.6297 271.472 81.619 271.24 81.6124C271.012 81.6017 270.78 81.5924 270.552 81.583C270.323 81.5737 270.095 81.5644 269.866 81.5564C269.455 81.507 269.168 81.0564 269.142 80.407L269.106 77.255C269.119 76.6044 269.39 76.1684 269.803 76.151C270.031 76.155 270.26 76.1617 270.488 76.1684C270.716 76.1737 270.947 76.1817 271.178 76.187C271.407 76.195 271.64 76.2017 271.872 76.211C272.103 76.2164 272.338 76.223 272.57 76.2283ZM279.3 76.4524C279.752 76.5017 280.068 76.967 280.096 77.6324L280.139 80.8643C280.128 81.527 279.827 81.9617 279.375 81.9737C279.126 81.9604 278.88 81.9497 278.631 81.9377C278.386 81.9257 278.138 81.9137 277.894 81.903C277.65 81.8897 277.403 81.8804 277.158 81.867C276.915 81.8564 276.674 81.8444 276.431 81.8337C275.991 81.7804 275.686 81.3203 275.658 80.6643L275.616 77.4657C275.63 76.807 275.922 76.3697 276.358 76.351C276.602 76.359 276.846 76.367 277.087 76.375C277.332 76.383 277.576 76.3924 277.823 76.4004C278.068 76.4084 278.311 76.4163 278.562 76.427C278.804 76.4363 279.052 76.4457 279.3 76.4524ZM286.4 76.7283C286.876 76.7803 287.203 77.2564 287.236 77.9377L287.286 81.231C287.272 81.9057 286.958 82.347 286.48 82.3537C286.22 82.3377 285.959 82.3257 285.702 82.3097C285.443 82.2937 285.183 82.279 284.926 82.2657C284.67 82.2497 284.412 82.2364 284.154 82.2217C283.898 82.2084 283.642 82.195 283.384 82.1817C282.92 82.1217 282.599 81.651 282.564 80.9817L282.52 77.731C282.536 77.0617 282.844 76.619 283.306 76.603C283.564 76.6137 283.82 76.6217 284.074 76.6324C284.332 76.643 284.59 76.655 284.846 76.6643C285.106 76.6737 285.36 76.687 285.622 76.695C285.88 76.7057 286.14 76.7163 286.4 76.7283ZM293.831 77.0657C294.327 77.127 294.672 77.6137 294.707 78.311L294.762 81.683C294.747 82.375 294.418 82.8204 293.92 82.823C293.65 82.8044 293.378 82.7844 293.108 82.7684C292.838 82.7497 292.567 82.731 292.296 82.7137C292.027 82.6964 291.759 82.679 291.488 82.6617C291.223 82.643 290.955 82.627 290.686 82.6097C290.2 82.5444 289.864 82.059 289.832 81.3777L289.78 78.0564C289.798 77.3644 290.111 76.9244 290.6 76.911C290.868 76.9244 291.136 76.9377 291.403 76.9484C291.672 76.9604 291.94 76.9737 292.211 76.9897C292.479 77.0004 292.747 77.0137 293.019 77.0283C293.288 77.0403 293.562 77.0524 293.831 77.0657ZM301.574 77.4817C302.091 77.547 302.452 78.0537 302.491 78.7697L302.55 82.239C302.536 82.9497 302.191 83.4057 301.676 83.3977C301.392 83.3777 301.111 83.3537 300.827 83.3337C300.546 83.307 300.266 83.2857 299.983 83.2657C299.702 83.243 299.426 83.223 299.144 83.203C298.863 83.179 298.586 83.159 298.307 83.1364C297.803 83.0644 297.451 82.5643 297.414 81.8643L297.359 78.4577C297.372 77.7603 297.707 77.3017 298.214 77.291C298.491 77.3083 298.767 77.323 299.047 77.3377C299.327 77.3524 299.604 77.3684 299.887 77.383C300.166 77.4004 300.448 77.4164 300.728 77.4324C301.012 77.447 301.292 77.4644 301.574 77.4817ZM309.627 77.9884C310.163 78.0617 310.536 78.591 310.576 79.331L310.642 82.9217C310.628 83.6537 310.275 84.119 309.739 84.107C309.447 84.0804 309.151 84.0524 308.859 84.023C308.564 83.9977 308.272 83.9684 307.98 83.9404C307.688 83.9164 307.398 83.8883 307.106 83.863C306.815 83.835 306.524 83.8124 306.236 83.783C305.711 83.7004 305.346 83.179 305.304 82.4577L305.243 78.951C305.259 78.2284 305.606 77.7603 306.128 77.7577C306.418 77.7763 306.708 77.7937 306.999 77.8124C307.288 77.8324 307.582 77.8484 307.871 77.8697C308.163 77.8884 308.455 77.9083 308.748 77.9283C309.04 77.947 309.336 77.9684 309.627 77.9884ZM318.002 78.6097C318.559 78.695 318.946 79.247 318.991 80.0204L319.062 83.759C319.051 84.523 318.68 85.0017 318.124 84.9777C317.819 84.943 317.512 84.9084 317.207 84.875C316.9 84.8404 316.596 84.807 316.291 84.775C315.988 84.743 315.683 84.7097 315.382 84.6764C315.079 84.6457 314.78 84.6124 314.475 84.5804C313.928 84.487 313.548 83.9404 313.51 83.1897L313.442 79.5537C313.454 78.8057 313.816 78.3257 314.358 78.3257C314.66 78.3497 314.962 78.3723 315.262 78.3923C315.564 78.4177 315.867 78.4404 316.171 78.4657C316.474 78.4897 316.78 78.5124 317.082 78.5364C317.387 78.559 317.691 78.5857 318.002 78.6097ZM2.40613 16.583C2.8556 17.2684 3.178 17.955 3.176 20.583L1.5244 72.955C1.38533 75.159 1.038 76.5724 0.486932 77.1564L2.40613 16.583ZM63.5651 16.1097C65.8411 16.3897 67.35 18.2217 67.4124 20.779L66.3072 73.1817C66.1337 75.7764 64.5328 77.5644 62.2255 77.739C58.7744 77.7964 55.4271 77.843 52.1889 77.883C48.9312 77.9244 45.79 77.9524 42.7796 77.9764C39.7561 77.9977 36.8697 78.011 34.1223 78.0177C31.3713 78.0204 28.7645 78.0177 26.314 78.007C23.9113 78.0004 21.6572 77.9817 19.5556 77.959C17.4599 77.9377 15.5156 77.9084 13.7255 77.875C11.9411 77.8404 10.3135 77.8043 8.83747 77.7603C7.36813 77.719 6.0556 77.6737 4.89426 77.6217C3.73013 77.299 3.1572 75.755 3.18893 73.0257L4.83947 20.331C4.97547 17.6404 5.63893 16.0724 6.81347 15.667C7.96867 15.5364 9.2776 15.4137 10.7333 15.307C12.1995 15.2004 13.814 15.107 15.5843 15.031C17.3577 14.955 19.2837 14.895 21.3609 14.859C23.4427 14.8177 25.678 14.799 28.052 14.803C30.4853 14.807 33.0609 14.8337 35.7828 14.8884C38.5009 14.9404 41.3577 15.0203 44.3447 15.127C47.3239 15.2323 50.426 15.3697 53.6473 15.531C56.8479 15.6963 60.1552 15.8884 63.5651 16.1097ZM126.692 22.9683C128.464 23.555 128.767 25.7857 128.791 27.0644L128.294 71.8257C128.24 73.1163 127.887 75.3457 126.088 75.7497C123.24 75.8804 120.272 76.0097 117.15 76.143C113.962 76.2764 110.624 76.4084 107.104 76.539C103.515 76.671 99.7405 76.8017 95.7656 76.927C91.7099 77.055 87.4495 77.1777 82.9599 77.291C82.2656 77.3123 81.5771 77.3284 80.8921 77.3457C80.2015 77.3617 79.5145 77.3803 78.8291 77.395C78.1421 77.4123 77.4599 77.4297 76.776 77.4457C76.0937 77.4604 75.4113 77.4763 74.7333 77.4923C72.3239 77.4137 70.7848 75.7417 70.7171 73.127L71.7776 21.071C71.9531 18.507 73.5416 16.955 75.9271 17.0204C76.5979 17.075 77.2723 17.1297 77.9495 17.187C78.6213 17.2444 79.2952 17.3017 79.9755 17.3617C80.652 17.4203 81.3323 17.4817 82.0113 17.5417C82.6911 17.603 83.3723 17.6643 84.0536 17.727C88.4895 18.1363 92.7047 18.5617 96.7119 19.0017C100.642 19.435 104.374 19.879 107.92 20.3283C111.4 20.7683 114.703 21.2137 117.855 21.6617C120.938 22.0963 123.876 22.5364 126.692 22.9683ZM164.903 28.935C166.352 29.387 166.611 31.279 166.636 32.367L166.446 70.619C166.411 71.7217 166.131 73.6164 164.668 73.947C162.811 74.015 160.978 74.0884 159.15 74.1657C157.292 74.2444 155.443 74.3284 153.576 74.4137C151.683 74.5017 149.772 74.5937 147.827 74.687C145.847 74.7857 143.831 74.8857 141.762 74.987C141.03 75.0244 140.296 75.0617 139.552 75.099C138.808 75.1364 138.055 75.1737 137.292 75.211C136.53 75.2497 135.755 75.2883 134.972 75.3257C134.184 75.3643 133.39 75.403 132.584 75.443C130.892 75.2057 130.603 73.0284 130.579 71.7497L131.059 27.3884C131.136 25.2417 131.948 23.903 133.12 23.9817C133.915 24.1097 134.704 24.2377 135.48 24.3643C136.256 24.4923 137.022 24.6164 137.783 24.7417C138.534 24.867 139.279 24.9897 140.019 25.1124C140.752 25.2324 141.48 25.3537 142.202 25.4737C144.254 25.8124 146.248 26.143 148.21 26.463C150.138 26.7763 152.031 27.0804 153.906 27.3724C155.758 27.6564 157.592 27.935 159.431 28.195C161.243 28.455 163.062 28.7004 164.903 28.935ZM205.915 31.8484C207.688 32.1564 208.019 33.8857 208.056 34.8884L208.119 70.1497C208.062 71.8884 207.218 73.0737 205.975 73.171C203.519 73.187 201.074 73.2084 198.644 73.231C196.202 73.2577 193.774 73.2884 191.366 73.3204C188.938 73.3537 186.524 73.3924 184.142 73.435C181.736 73.479 179.347 73.527 176.994 73.5804C176.407 73.5937 175.824 73.607 175.247 73.6217C174.67 73.635 174.095 73.651 173.527 73.6643C172.956 73.6803 172.391 73.695 171.83 73.7137C171.267 73.727 170.707 73.7443 170.152 73.7603C168.666 73.539 168.403 71.671 168.379 70.575L168.556 32.5697C168.615 30.7004 169.3 29.5497 170.343 29.567C170.895 29.627 171.45 29.6844 172.008 29.7417C172.566 29.7964 173.126 29.851 173.691 29.9057C174.259 29.9577 174.827 30.011 175.4 30.0617C175.972 30.1124 176.551 30.1617 177.136 30.211C179.471 30.403 181.84 30.583 184.234 30.747C186.6 30.9084 188.992 31.0564 191.404 31.195C193.795 31.331 196.21 31.4497 198.636 31.559C201.048 31.6683 203.478 31.7644 205.915 31.8484ZM251.63 31.979C252.975 32.0257 253.9 33.1684 253.983 34.8923L254.311 70.3484C254.259 72.0937 253.35 73.2684 251.995 73.335C250.128 73.3124 248.255 73.2857 246.382 73.2657C244.512 73.2444 242.639 73.2257 240.767 73.2084C238.895 73.1924 237.023 73.179 235.152 73.167C233.28 73.1537 231.41 73.1457 229.54 73.1377C228.127 73.1337 226.714 73.127 225.302 73.1243C223.89 73.123 222.478 73.1217 221.07 73.1217C219.658 73.1217 218.246 73.123 216.843 73.1243C215.431 73.127 214.024 73.1297 212.622 73.1364C210.835 72.8897 210.503 71.1564 210.462 70.143L210.386 34.9497C210.42 33.9524 210.74 32.247 212.519 32.0444C213.911 32.0777 215.31 32.1097 216.71 32.1377C218.108 32.1644 219.51 32.1844 220.911 32.2057C222.31 32.223 223.711 32.239 225.115 32.2497C226.519 32.2604 227.923 32.2684 229.326 32.2737C231.182 32.2764 233.042 32.2737 234.899 32.263C236.759 32.2524 238.619 32.235 240.475 32.2137C242.338 32.1884 244.199 32.1564 246.054 32.1164C247.915 32.0777 249.775 32.031 251.63 31.979ZM294.736 29.0697C296.11 29.0097 297.064 30.195 297.163 32.091L297.799 71.2577C297.762 73.187 296.84 74.4577 295.456 74.4977C292.063 74.3537 288.711 74.2284 285.439 74.1177C282.228 74.0097 279.079 73.9137 276.036 73.831C273.032 73.747 270.122 73.6764 267.343 73.6137C264.59 73.5524 261.959 73.5003 259.496 73.4577L259.43 73.455H259.366H259.3L259.236 73.4497C257.882 73.3404 256.95 72.1324 256.864 70.3804L256.522 34.815C256.572 33.0804 257.475 31.8697 258.818 31.727L258.884 31.7257L258.947 31.723L259.012 31.7217L259.074 31.719C261.52 31.6164 264.131 31.4977 266.86 31.3484C269.622 31.2004 272.512 31.0257 275.49 30.8177C278.508 30.607 281.628 30.3617 284.811 30.0777C288.054 29.7884 291.374 29.4524 294.736 29.0697ZM299.784 31.7964C299.899 29.7457 300.676 28.5524 302.16 28.1457C303.539 27.9604 304.923 27.7657 306.311 27.559C307.718 27.3483 309.128 27.1297 310.544 26.8977C311.976 26.6644 313.418 26.4177 314.86 26.159C316.324 25.8977 317.795 25.6217 319.267 25.331L320.275 75.8484C318.78 75.747 317.291 75.6497 315.807 75.555C314.347 75.4604 312.888 75.3737 311.436 75.2884C310.004 75.2057 308.575 75.127 307.155 75.0524C305.748 74.9764 304.352 74.9057 302.959 74.8377C301.452 74.555 300.626 73.411 300.444 71.343L299.784 31.7964ZM2.74053 6.10969C2.9124 6.26569 2.99893 6.74301 2.99573 7.53101L2.85413 11.9817C2.8072 12.7737 2.6864 13.3043 2.50093 13.559L2.73947 6.10702M7.75 5.06968C8.19266 5.06168 8.47653 5.65637 8.47027 6.58837L8.33226 11.1164C8.2812 12.0497 7.95667 12.7124 7.50933 12.8097C7.27227 12.8377 7.04 12.8643 6.81347 12.8923C6.58747 12.9217 6.36813 12.947 6.15 12.979C5.9364 13.0044 5.72907 13.035 5.5244 13.0643C5.32187 13.095 5.12493 13.1244 4.93226 13.1564C4.59106 13.1657 4.38693 12.5923 4.4 11.659L4.53893 7.17903C4.58747 6.2337 4.82907 5.58035 5.1744 5.47102C5.36613 5.43769 5.56093 5.40035 5.7656 5.36702C5.96706 5.33102 6.17707 5.29768 6.39213 5.26435C6.6056 5.23102 6.82707 5.19902 7.0504 5.16569C7.2796 5.13369 7.51133 5.10168 7.75 5.06968ZM15.9817 4.36301C16.6337 4.37768 17.0588 4.9977 17.064 5.94169L16.928 10.523C16.8671 11.4657 16.4061 12.1244 15.7489 12.203C15.4 12.219 15.0547 12.235 14.7135 12.2524C14.3765 12.2697 14.0432 12.2857 13.7171 12.3057C13.3869 12.323 13.0676 12.343 12.7541 12.3643C12.4364 12.3857 12.1285 12.403 11.8255 12.4257C11.2796 12.4163 10.94 11.823 10.9411 10.875L11.0791 6.32567C11.1353 5.36701 11.5113 4.71503 12.0609 4.6217C12.3629 4.59904 12.6719 4.57237 12.9869 4.5497C13.302 4.52704 13.6213 4.50436 13.9495 4.48437C14.2776 4.4617 14.6093 4.44037 14.9479 4.4217C15.2848 4.40037 15.6317 4.38301 15.9817 4.36301ZM27.3609 4.07903C28.5233 4.1457 28.6265 5.35104 28.6301 5.72171L28.5061 10.3257C28.4567 11.0803 28.0719 11.9083 27.1389 11.9617C26.676 11.963 26.2203 11.963 25.7681 11.967C25.3176 11.9683 24.8713 11.9737 24.4323 11.9764C23.9905 11.9817 23.5588 11.987 23.1317 11.9923C22.7031 11.9977 22.2812 12.0044 21.8661 12.0124C21.1109 11.979 20.6353 11.363 20.6233 10.4057L20.7593 5.81103C20.8219 4.8457 21.3343 4.20569 22.0895 4.14036C22.5061 4.13236 22.928 4.12304 23.3541 4.11637C23.7796 4.1097 24.2151 4.10435 24.6552 4.09902C25.0927 4.09369 25.5389 4.08837 25.9895 4.0857C26.4411 4.08303 26.8973 4.08036 27.3609 4.07903ZM37.1963 4.20302C37.8609 4.27102 38.2952 4.9257 38.3056 5.87503L38.1889 10.4684C38.1285 11.411 37.6572 12.0417 36.9905 12.075C36.6249 12.0644 36.2645 12.0564 35.9036 12.0497C35.5432 12.0444 35.1864 12.0363 34.8291 12.031C34.4755 12.023 34.1213 12.0177 33.7723 12.011C33.4228 12.0057 33.0728 12.0003 32.7276 11.9977C32.0979 11.9403 31.7015 11.3084 31.6963 10.3457L31.8219 5.74169C31.8785 4.77903 32.3056 4.15637 32.9389 4.11637C33.2828 4.1217 33.6301 4.12702 33.9807 4.13502C34.3291 4.14035 34.6848 4.14837 35.038 4.15503C35.3932 4.1617 35.7509 4.16703 36.1077 4.17636C36.4703 4.18569 36.8323 4.19369 37.1963 4.20302ZM47.9619 4.61904C48.7015 4.70437 49.19 5.36703 49.2047 6.31236L49.0963 10.8737C49.0328 11.807 48.5156 12.4217 47.7723 12.4377C47.3681 12.4217 46.9635 12.403 46.5599 12.387C46.1572 12.371 45.7577 12.3537 45.3609 12.3377C44.9635 12.3217 44.5687 12.307 44.1728 12.2937C43.7812 12.2763 43.3889 12.263 42.9989 12.2497C42.2837 12.1764 41.8323 11.5364 41.8187 10.5777L41.9364 5.99235C41.9947 5.04702 42.4895 4.42302 43.1979 4.40302C43.5859 4.41902 43.9776 4.43637 44.3681 4.45237C44.7613 4.46837 45.1572 4.48702 45.5536 4.50435C45.9515 4.52302 46.3515 4.54168 46.7541 4.55901C47.152 4.57901 47.5588 4.59904 47.9619 4.61904ZM59.7828 5.34569C60.5823 5.45236 61.1129 6.12171 61.1328 7.05504L61.0328 11.5603C60.9723 12.4843 60.4113 13.0764 59.6109 13.0724C59.1708 13.047 58.7307 13.0177 58.2952 12.9923C57.8593 12.9643 57.4228 12.9377 56.9885 12.9137C56.5556 12.8884 56.1233 12.8644 55.6963 12.8377C55.2667 12.815 54.8343 12.791 54.4104 12.7684C53.6276 12.6764 53.1317 12.0284 53.1129 11.079L53.2203 6.53101C53.2828 5.58301 53.8072 4.99502 54.5927 4.99502C55.0167 5.02168 55.4443 5.04969 55.8733 5.07636C56.3036 5.10703 56.7343 5.13502 57.1656 5.16435C57.6 5.19235 58.0348 5.2217 58.4703 5.25104C58.9072 5.28304 59.3427 5.31503 59.7828 5.34569ZM72.414 6.39501C73.2629 6.52301 73.8255 7.19503 73.85 8.11236L73.7604 12.5364C73.6995 13.4403 73.1109 14.0097 72.2593 13.9884C71.7952 13.9497 71.3307 13.9137 70.8713 13.8777C70.4061 13.8404 69.9463 13.8044 69.4885 13.7684C69.026 13.7324 68.5687 13.6977 68.1129 13.6617C67.6561 13.6297 67.1995 13.5963 66.7437 13.559C65.9176 13.455 65.3733 12.7883 65.35 11.8643L65.4479 7.38303C65.5093 6.44837 66.0687 5.88302 66.9052 5.90436C67.3619 5.94302 67.8167 5.98304 68.2744 6.02304C68.7276 6.06437 69.1864 6.10169 69.6443 6.14303C70.1067 6.18303 70.5651 6.22569 71.0276 6.26835C71.4885 6.30969 71.9515 6.35368 72.414 6.39501ZM85.3556 7.74035C86.0728 7.86702 86.5468 8.52838 86.5667 9.42304L86.4895 13.7457C86.4364 14.6297 85.94 15.1843 85.2223 15.159L84.9443 15.1297L84.6656 15.1044L84.3853 15.075L84.1041 15.0497C83.7395 15.0124 83.3733 14.9764 83.0093 14.943C82.6421 14.9057 82.2776 14.8724 81.9156 14.8377C81.5504 14.8044 81.1864 14.7697 80.8187 14.7364C80.4583 14.703 80.0947 14.667 79.7333 14.635C78.8749 14.5097 78.3036 13.8444 78.2776 12.9377L78.3629 8.54703C78.4219 7.64837 79.0181 7.09369 79.8733 7.13769C80.2385 7.17635 80.6 7.21637 80.9651 7.25371C81.3271 7.29371 81.6911 7.33102 82.0536 7.37102C82.4176 7.41102 82.7837 7.44968 83.1457 7.49235C83.5113 7.53235 83.8765 7.57237 84.2395 7.6137L84.5223 7.6457L84.8004 7.67636L85.0791 7.70836L85.3556 7.74035ZM95.8749 9.03368C96.5223 9.16168 96.9495 9.81238 96.9671 10.6884L96.9 14.9084C96.8515 15.7737 96.4052 16.3124 95.7525 16.283C95.3943 16.2417 95.0348 16.2003 94.6728 16.159C94.3099 16.119 93.9443 16.075 93.5791 16.0364C93.2119 15.995 92.8427 15.955 92.4723 15.9137C92.1031 15.8724 91.7307 15.8337 91.3541 15.7937C90.6708 15.6723 90.2171 15.0257 90.1963 14.1404L90.2733 9.85237C90.3219 8.97237 90.7984 8.42969 91.4807 8.47102C91.8541 8.51635 92.2255 8.56169 92.5979 8.60969C92.9651 8.65636 93.3343 8.70303 93.7015 8.7497C94.0667 8.79637 94.4296 8.84434 94.7952 8.89234C95.1552 8.94034 95.5156 8.98568 95.8749 9.03368ZM105.382 10.3697C105.972 10.5017 106.352 11.1217 106.371 11.9923L106.31 16.1124C106.266 16.967 105.87 17.4764 105.276 17.4457C104.952 17.4004 104.626 17.3604 104.298 17.3177C103.972 17.2764 103.643 17.235 103.311 17.1923C102.981 17.151 102.648 17.1097 102.314 17.067C101.978 17.0257 101.643 16.983 101.305 16.943C100.683 16.823 100.272 16.1857 100.254 15.323L100.322 11.1337C100.366 10.2764 100.795 9.74834 101.416 9.79368C101.754 9.83901 102.091 9.88835 102.423 9.93769C102.759 9.98569 103.089 10.031 103.421 10.0804C103.752 10.1297 104.079 10.1763 104.404 10.2257C104.735 10.2737 105.059 10.323 105.382 10.3697ZM113.972 11.723C114.506 11.8537 114.856 12.4764 114.874 13.307L114.82 17.323C114.78 18.1457 114.412 18.6537 113.878 18.619C113.586 18.5777 113.292 18.5363 112.996 18.4923C112.702 18.4523 112.403 18.4083 112.106 18.3657C111.806 18.3257 111.504 18.283 111.202 18.2404C110.898 18.1977 110.595 18.1564 110.291 18.1137C109.731 17.995 109.359 17.375 109.346 16.5283L109.402 12.447C109.443 11.6097 109.83 11.0964 110.387 11.143C110.692 11.191 110.999 11.239 111.299 11.2884C111.603 11.335 111.902 11.3857 112.202 11.4323C112.498 11.4817 112.795 11.5297 113.091 11.5777C113.387 11.627 113.68 11.6764 113.972 11.723ZM121.756 13.067C122.236 13.195 122.556 13.8004 122.57 14.6124L122.524 18.5257C122.49 19.3257 122.158 19.8204 121.676 19.7857C121.407 19.7444 121.142 19.703 120.871 19.6617C120.603 19.6217 120.335 19.5777 120.062 19.5377C119.791 19.4977 119.516 19.4524 119.244 19.4124C118.97 19.3724 118.694 19.331 118.418 19.2857C117.911 19.1684 117.572 18.5617 117.562 17.7417L117.612 13.7603C117.647 12.943 117.998 12.4457 118.503 12.4923C118.78 12.5403 119.054 12.5884 119.33 12.6377C119.606 12.6844 119.875 12.7337 120.147 12.7804C120.418 12.8284 120.688 12.8763 120.958 12.9243C121.226 12.971 121.491 13.0203 121.756 13.067ZM128.838 14.3817C129.278 14.5057 129.567 15.0964 129.58 15.8884L129.539 19.6977C129.511 20.4763 129.206 20.9603 128.764 20.927C128.523 20.8883 128.279 20.8457 128.035 20.807C127.788 20.7684 127.543 20.7257 127.292 20.6844C127.046 20.6457 126.796 20.6043 126.547 20.5643C126.298 20.5217 126.047 20.4817 125.794 20.4404C125.335 20.3257 125.028 19.7337 125.014 18.9337L125.059 15.0564C125.094 14.2604 125.408 13.7764 125.871 13.823C126.124 13.8697 126.372 13.9163 126.624 13.963C126.871 14.0097 127.123 14.055 127.368 14.1044C127.616 14.1484 127.86 14.1977 128.108 14.2444C128.352 14.2884 128.594 14.335 128.838 14.3817ZM135.332 15.651C135.743 15.771 136.004 16.3337 136.018 17.1137L135.982 20.831C135.956 21.5883 135.676 22.059 135.27 22.0283C135.046 21.9897 134.82 21.9524 134.595 21.9137C134.37 21.8737 134.142 21.835 133.918 21.7963C133.688 21.7577 133.459 21.719 133.231 21.679C133 21.6404 132.77 21.6017 132.54 21.5603C132.116 21.4497 131.835 20.8737 131.819 20.095L131.858 16.3177C131.891 15.5417 132.183 15.067 132.61 15.1137C132.84 15.159 133.07 15.203 133.298 15.247C133.526 15.2937 133.755 15.3377 133.98 15.383C134.208 15.4284 134.434 15.4737 134.659 15.5177C134.886 15.5617 135.11 15.607 135.332 15.651ZM141.355 16.863C141.736 16.979 141.983 17.523 141.996 18.2857L141.962 21.907C141.938 22.6484 141.676 23.1097 141.298 23.079C141.09 23.0444 140.88 23.0057 140.671 22.9697C140.459 22.9324 140.25 22.895 140.036 22.859C139.827 22.823 139.616 22.7844 139.4 22.747C139.187 22.7084 138.974 22.671 138.76 22.635C138.368 22.5283 138.108 21.9684 138.095 21.2084L138.131 17.5257C138.156 16.771 138.426 16.3097 138.82 16.3497C139.032 16.3924 139.246 16.4377 139.459 16.4804C139.674 16.523 139.883 16.5657 140.096 16.6097C140.307 16.651 140.519 16.6924 140.728 16.735C140.936 16.779 141.144 16.823 141.355 16.863ZM147.442 18.0897C147.831 18.2057 148.09 18.7497 148.104 19.4817L148.075 23.007C148.051 23.7284 147.78 24.1737 147.392 24.1444C147.176 24.1097 146.96 24.0697 146.747 24.0337C146.531 23.995 146.314 23.955 146.098 23.919C145.88 23.883 145.663 23.843 145.444 23.807C145.227 23.7684 145.004 23.7283 144.788 23.691C144.384 23.583 144.116 23.0337 144.103 22.2937L144.134 18.7084C144.16 17.971 144.439 17.523 144.84 17.567C145.059 17.6123 145.276 17.6564 145.496 17.7004C145.712 17.743 145.928 17.7857 146.15 17.831C146.366 17.875 146.582 17.9163 146.795 17.9603C147.012 18.0043 147.226 18.047 147.442 18.0897ZM153.28 19.2364C153.651 19.343 153.9 19.8724 153.912 20.583L153.89 24.0204C153.866 24.723 153.611 25.1644 153.238 25.1377C153.035 25.1044 152.827 25.0697 152.622 25.035C152.415 25.0003 152.21 24.9657 152.003 24.9323C151.795 24.8977 151.59 24.8617 151.382 24.8283C151.174 24.7937 150.966 24.7577 150.758 24.7217C150.379 24.6217 150.124 24.0897 150.114 23.3684L150.138 19.8724C150.163 19.1564 150.423 18.719 150.803 18.755C151.01 18.7964 151.219 18.835 151.423 18.8777C151.634 18.9164 151.84 18.9577 152.046 18.9977C152.254 19.0377 152.459 19.0764 152.666 19.1164C152.872 19.159 153.074 19.195 153.28 19.2364ZM158.918 20.2737C159.282 20.3724 159.524 20.887 159.538 21.5804L159.519 24.9404C159.496 25.627 159.244 26.059 158.882 26.039C158.68 26.007 158.48 25.9764 158.282 25.9457C158.08 25.9164 157.878 25.8857 157.678 25.8537C157.478 25.823 157.278 25.7897 157.076 25.7577C156.874 25.7257 156.674 25.695 156.468 25.6617C156.103 25.5683 155.858 25.055 155.846 24.3484L155.868 20.9377C155.89 20.2404 156.144 19.8097 156.51 19.839C156.71 19.8764 156.912 19.9137 157.115 19.9497C157.314 19.987 157.514 20.023 157.716 20.059C157.914 20.0937 158.116 20.131 158.315 20.167C158.516 20.203 158.718 20.2377 158.918 20.2737ZM164.491 21.1977C164.856 21.2883 165.099 21.7884 165.114 22.4683L165.098 25.7577C165.072 26.4323 164.824 26.8564 164.459 26.843C164.259 26.815 164.062 26.7883 163.86 26.7617C163.66 26.7323 163.462 26.7057 163.26 26.6764C163.063 26.651 162.863 26.6217 162.663 26.5937C162.463 26.5643 162.262 26.5377 162.063 26.5097C161.699 26.4217 161.455 25.9217 161.439 25.2323L161.46 21.8977C161.48 21.2163 161.732 20.7884 162.096 20.815C162.295 20.847 162.495 20.8804 162.694 20.9124C162.895 20.9457 163.094 20.979 163.292 21.0097C163.492 21.0417 163.69 21.0724 163.892 21.1044C164.09 21.1364 164.291 21.167 164.491 21.1977ZM170.13 22.0097C170.504 22.0937 170.754 22.5764 170.772 23.2444L170.759 26.4737C170.738 27.1337 170.48 27.555 170.107 27.547C169.9 27.523 169.695 27.499 169.494 27.475C169.288 27.4524 169.083 27.4284 168.88 27.403C168.679 27.3804 168.475 27.355 168.27 27.331C168.071 27.307 167.866 27.2803 167.663 27.2577C167.296 27.1763 167.051 26.6897 167.035 26.015L167.051 22.747C167.074 22.067 167.319 21.6564 167.691 21.6764C167.894 21.7057 168.096 21.731 168.299 21.7617C168.502 21.7897 168.704 21.819 168.907 21.8457C169.111 21.8724 169.315 21.9003 169.516 21.927C169.723 21.955 169.924 21.983 170.13 22.0097ZM175.97 22.7017C176.36 22.7763 176.622 23.2497 176.642 23.903L176.631 27.0804C176.608 27.731 176.34 28.151 175.951 28.1484C175.736 28.127 175.522 28.1097 175.31 28.0884C175.095 28.0684 174.883 28.0483 174.671 28.0283C174.459 28.007 174.247 27.987 174.038 27.963C173.824 27.9457 173.615 27.9244 173.407 27.903C173.024 27.831 172.767 27.3563 172.751 26.695L172.766 23.487C172.788 22.8177 173.042 22.4084 173.426 22.419C173.636 22.4457 173.847 22.4683 174.059 22.4923C174.268 22.5163 174.478 22.539 174.691 22.5617C174.903 22.5857 175.116 22.6097 175.33 22.6337C175.54 22.6563 175.755 22.679 175.97 22.7017ZM182.486 23.3257C182.92 23.395 183.215 23.859 183.236 24.5044L183.228 27.6324C183.204 28.2763 182.91 28.687 182.472 28.6897C182.234 28.671 181.996 28.6537 181.754 28.6324C181.516 28.6137 181.278 28.5964 181.04 28.5777C180.8 28.559 180.562 28.539 180.324 28.5204C180.086 28.5017 179.847 28.4817 179.608 28.463C179.178 28.395 178.884 27.9297 178.866 27.279L178.874 24.119C178.898 23.4697 179.191 23.0563 179.624 23.0643C179.86 23.0883 180.102 23.1097 180.338 23.1297C180.576 23.1523 180.814 23.1737 181.052 23.195C181.292 23.2163 181.53 23.239 181.77 23.2617C182.007 23.2817 182.247 23.3043 182.486 23.3257ZM189.19 23.8617C189.628 23.9257 189.926 24.379 189.95 25.0177L189.944 28.107C189.92 28.7404 189.623 29.1524 189.18 29.1564C188.943 29.1417 188.7 29.1244 188.462 29.1097C188.218 29.0937 187.976 29.079 187.736 29.0644C187.496 29.047 187.254 29.031 187.014 29.015C186.772 29.0004 186.535 28.9817 186.292 28.9657C185.855 28.903 185.559 28.447 185.536 27.807L185.542 24.6923C185.567 24.0523 185.864 23.6404 186.303 23.6417C186.543 23.6617 186.786 23.679 187.026 23.6977C187.264 23.7163 187.504 23.7337 187.746 23.7524C187.987 23.771 188.228 23.7884 188.467 23.807C188.708 23.8257 188.951 23.843 189.19 23.8617ZM195.952 24.307C196.403 24.367 196.694 24.8044 196.718 25.443L196.715 28.5004C196.694 29.127 196.395 29.539 195.951 29.547C195.707 29.535 195.466 29.5217 195.223 29.5097C194.979 29.495 194.736 29.4844 194.494 29.471C194.25 29.455 194.007 29.443 193.764 29.4297C193.524 29.4164 193.28 29.4004 193.038 29.3884C192.599 29.3324 192.298 28.8857 192.278 28.2524L192.28 25.1737C192.303 24.531 192.595 24.1297 193.043 24.127C193.283 24.143 193.526 24.159 193.77 24.1737C194.01 24.1897 194.254 24.2057 194.496 24.219C194.738 24.2337 194.98 24.2497 195.224 24.2657C195.464 24.279 195.708 24.2937 195.952 24.307ZM202.759 24.6683C203.206 24.7217 203.51 25.1617 203.532 25.7857L203.535 28.8164C203.514 29.4377 203.212 29.8497 202.764 29.8617C202.519 29.851 202.276 29.8404 202.032 29.831C201.786 29.823 201.54 29.811 201.296 29.8017C201.054 29.7897 200.808 29.7804 200.566 29.7697C200.322 29.759 200.076 29.747 199.835 29.7364C199.39 29.6844 199.087 29.2444 199.067 28.6164L199.064 25.5697C199.086 24.943 199.387 24.5337 199.83 24.523C200.074 24.5364 200.318 24.5497 200.563 24.5617C200.806 24.5737 201.048 24.5857 201.292 24.599C201.538 24.6123 201.782 24.6243 202.027 24.635C202.27 24.6457 202.516 24.6563 202.759 24.6683ZM209.606 24.9484C210.051 24.995 210.355 25.427 210.379 26.0497L210.388 29.059C210.366 29.679 210.062 30.0884 209.615 30.1084C209.371 30.1017 209.122 30.0937 208.878 30.0857C208.631 30.0777 208.387 30.0684 208.139 30.0617C207.896 30.0524 207.648 30.043 207.403 30.0364C207.158 30.0284 206.912 30.0177 206.666 30.0097C206.22 29.9644 205.918 29.531 205.895 28.9084L205.888 25.8857C205.91 25.263 206.215 24.8524 206.66 24.839C206.903 24.8484 207.15 24.859 207.395 24.8697C207.64 24.8777 207.887 24.8883 208.131 24.895C208.378 24.9043 208.624 24.9137 208.868 24.9217C209.115 24.931 209.359 24.9404 209.606 24.9484ZM216.475 25.147C216.923 25.1897 217.23 25.6164 217.254 26.2337L217.263 29.231C217.243 29.8484 216.938 30.2604 216.491 30.283C216.244 30.279 215.996 30.2737 215.751 30.2684C215.503 30.263 215.258 30.2577 215.01 30.251C214.764 30.2444 214.518 30.239 214.272 30.2337C214.024 30.2257 213.78 30.2217 213.53 30.215C213.086 30.1724 212.78 29.747 212.758 29.127L212.747 26.1217C212.77 25.5017 213.071 25.091 213.516 25.0697C213.764 25.0777 214.012 25.0857 214.255 25.0923C214.506 25.099 214.748 25.1044 214.996 25.1124C215.243 25.1164 215.488 25.1243 215.736 25.1297C215.983 25.135 216.227 25.1417 216.475 25.147ZM223.363 25.2684C223.819 25.3044 224.122 25.719 224.144 26.343L224.158 29.335C224.139 29.947 223.838 30.3644 223.387 30.3897C223.139 30.3884 222.892 30.3857 222.644 30.383C222.398 30.3804 222.152 30.375 221.904 30.3724C221.658 30.3697 221.41 30.367 221.163 30.3617C220.915 30.359 220.67 30.355 220.423 30.351C219.972 30.315 219.666 29.8924 219.639 29.275L219.628 26.279C219.65 25.6644 219.955 25.2497 220.404 25.2257C220.65 25.231 220.9 25.2323 221.142 25.2363C221.39 25.2417 221.636 25.2444 221.883 25.247C222.131 25.2524 222.378 25.255 222.626 25.2577C222.871 25.263 223.118 25.2657 223.363 25.2684ZM230.347 25.3097C230.834 25.3404 231.168 25.7604 231.196 26.375L231.212 29.367C231.192 29.979 230.863 30.3977 230.374 30.4297H230.108L229.846 30.4284L229.578 30.427L229.316 30.4284C229.15 30.427 228.983 30.427 228.819 30.427C228.655 30.427 228.488 30.4243 228.322 30.4243C228.155 30.423 227.988 30.423 227.823 30.4217C227.66 30.4217 227.494 30.4217 227.327 30.4204C226.876 30.3884 226.57 29.9684 226.542 29.3537L226.53 26.3617C226.551 25.747 226.852 25.331 227.3 25.3017C227.467 25.3017 227.631 25.3017 227.798 25.303C227.964 25.303 228.128 25.3044 228.295 25.3044C228.46 25.307 228.626 25.307 228.792 25.307C228.959 25.3084 229.123 25.307 229.29 25.3084L229.555 25.3097H229.819H230.08H230.347ZM237.822 25.2657C238.308 25.2883 238.642 25.7057 238.67 26.323L238.69 29.3177C238.67 29.935 238.343 30.3564 237.854 30.3937C237.587 30.3977 237.319 30.3977 237.051 30.4004C236.783 30.403 236.514 30.4057 236.248 30.4084C235.978 30.4084 235.71 30.411 235.442 30.4137C235.179 30.415 234.907 30.4164 234.639 30.4164C234.152 30.3897 233.816 29.9737 233.79 29.359L233.772 26.367C233.792 25.7497 234.12 25.3283 234.607 25.2937C234.876 25.291 235.143 25.291 235.411 25.2884C235.678 25.2844 235.947 25.283 236.215 25.2804C236.482 25.279 236.751 25.2764 237.016 25.2737C237.286 25.271 237.555 25.2683 237.822 25.2657ZM245.295 25.1243C245.783 25.143 246.116 25.5564 246.146 26.1764L246.17 29.187C246.15 29.807 245.822 30.2337 245.335 30.2764C245.067 30.2804 244.799 30.2857 244.53 30.291C244.263 30.2963 243.996 30.303 243.728 30.307C243.459 30.3124 243.192 30.3177 242.923 30.323C242.655 30.3284 242.388 30.331 242.119 30.335C241.631 30.3124 241.298 29.899 241.27 29.283L241.248 26.2804C241.266 25.6617 241.595 25.2363 242.082 25.1977C242.35 25.191 242.618 25.1844 242.886 25.1804C243.154 25.1737 243.42 25.1683 243.688 25.1617C243.958 25.1563 244.226 25.151 244.492 25.143C244.762 25.1377 245.027 25.131 245.295 25.1243ZM252.767 24.8857C253.254 24.8977 253.588 25.3097 253.619 25.9337L253.644 28.967C253.626 29.591 253.3 30.0257 252.815 30.0724C252.546 30.0817 252.279 30.091 252.012 30.099C251.743 30.1084 251.475 30.1163 251.208 30.1243C250.942 30.1323 250.674 30.1404 250.404 30.1484C250.138 30.1564 249.868 30.1617 249.603 30.1684C249.115 30.1537 248.778 29.739 248.748 29.119L248.722 26.1044C248.743 25.4804 249.071 25.0483 249.56 25.0003C249.827 24.9923 250.092 24.9817 250.359 24.9724C250.628 24.963 250.895 24.955 251.163 24.9457C251.431 24.9364 251.699 24.927 251.964 24.9137C252.234 24.9057 252.499 24.895 252.767 24.8857ZM259.903 24.559C260.262 24.5723 260.514 24.987 260.536 25.619L260.57 28.6764C260.556 29.3097 260.316 29.747 259.959 29.7937L259.731 29.8044L259.506 29.815L259.28 29.823L259.055 29.8337C258.892 29.8404 258.727 29.8484 258.563 29.855C258.399 29.8617 258.232 29.8697 258.067 29.8777C257.903 29.883 257.736 29.8897 257.57 29.895C257.407 29.903 257.24 29.911 257.075 29.9177C256.59 29.903 256.254 29.4924 256.223 28.8697L256.196 25.8284C256.212 25.1977 256.54 24.7577 257.024 24.703C257.191 24.695 257.355 24.687 257.519 24.679C257.684 24.671 257.85 24.6644 258.016 24.6564C258.179 24.6484 258.344 24.6403 258.51 24.6323C258.674 24.6243 258.84 24.6164 259.004 24.607L259.228 24.5963L259.452 24.583L259.678 24.5724L259.903 24.559ZM265.678 24.2217C266.074 24.2284 266.348 24.6444 266.376 25.279L266.41 28.3697C266.398 29.0043 266.134 29.4497 265.738 29.5044C265.519 29.5164 265.308 29.5284 265.092 29.5404C264.882 29.5524 264.668 29.5644 264.454 29.575C264.24 29.5857 264.03 29.5964 263.82 29.6084C263.61 29.6177 263.402 29.6297 263.194 29.639C262.814 29.627 262.554 29.211 262.527 28.5817L262.496 25.5124C262.51 24.8697 262.755 24.435 263.135 24.3804C263.344 24.367 263.552 24.355 263.762 24.343C263.972 24.331 264.183 24.3164 264.398 24.303C264.61 24.291 264.822 24.279 265.035 24.2643C265.246 24.251 265.463 24.2364 265.678 24.2217ZM271.931 23.7764C272.355 23.7764 272.647 24.1924 272.678 24.8337L272.715 27.9603C272.702 28.6043 272.42 29.059 271.996 29.1217C271.767 29.1377 271.535 29.1537 271.306 29.1684C271.074 29.1817 270.846 29.1977 270.616 29.2137C270.387 29.2284 270.159 29.2417 269.931 29.2577C269.704 29.271 269.478 29.2857 269.254 29.299C268.846 29.291 268.563 28.8777 268.534 28.239L268.499 25.139C268.512 24.4977 268.786 24.0444 269.191 23.9844C269.415 23.9657 269.642 23.951 269.868 23.9337C270.095 23.9163 270.322 23.899 270.554 23.883C270.782 23.8644 271.011 23.8483 271.24 23.8283C271.47 23.8123 271.702 23.795 271.931 23.7764ZM278.592 23.203C279.04 23.1923 279.352 23.6097 279.386 24.2603L279.426 27.4377C279.412 28.091 279.114 28.559 278.666 28.6297C278.42 28.6484 278.179 28.6684 277.931 28.687C277.688 28.7057 277.444 28.7257 277.202 28.7444C276.958 28.7644 276.718 28.783 276.472 28.8017C276.234 28.8204 275.994 28.8377 275.754 28.8564C275.319 28.8564 275.016 28.4403 274.986 27.7937L274.946 24.6537C274.959 24.0017 275.251 23.5363 275.683 23.4657C275.924 23.4457 276.163 23.4244 276.404 23.403C276.646 23.3817 276.888 23.359 277.128 23.3377C277.375 23.315 277.618 23.2923 277.86 23.271C278.104 23.2497 278.35 23.2257 278.592 23.203ZM285.62 22.4764C286.088 22.455 286.412 22.8724 286.448 23.5364L286.494 26.771C286.48 27.4404 286.168 27.9244 285.696 28.0044C285.439 28.0284 285.183 28.055 284.927 28.0777C284.671 28.1017 284.415 28.127 284.158 28.151C283.904 28.1737 283.651 28.1977 283.396 28.2217C283.143 28.2444 282.888 28.2684 282.636 28.2897C282.176 28.2977 281.855 27.8803 281.827 27.2257L281.782 24.0297C281.794 23.3697 282.099 22.8897 282.562 22.807C282.814 22.783 283.064 22.7577 283.319 22.7283C283.572 22.7017 283.827 22.6737 284.082 22.6457C284.338 22.619 284.591 22.591 284.848 22.5617C285.106 22.5337 285.363 22.5044 285.62 22.4764ZM292.967 21.5643C293.455 21.5323 293.795 21.9497 293.83 22.6297L293.884 25.943C293.868 26.6257 293.543 27.127 293.055 27.219C292.787 27.2497 292.516 27.279 292.251 27.311C291.982 27.3404 291.715 27.371 291.448 27.4017C291.18 27.4324 290.915 27.4603 290.652 27.4923C290.384 27.5203 290.122 27.5497 289.856 27.5777C289.376 27.5937 289.046 27.1737 289.011 26.5044L288.96 23.247C288.974 22.571 289.292 22.075 289.774 21.9817C290.035 21.9457 290.3 21.9137 290.567 21.8817C290.83 21.847 291.095 21.8124 291.363 21.7764C291.628 21.743 291.894 21.7084 292.163 21.6737C292.428 21.6377 292.696 21.6017 292.967 21.5643ZM300.611 20.431C301.124 20.3857 301.48 20.8044 301.516 21.5017L301.576 24.9057C301.559 25.6124 301.22 26.135 300.711 26.2417C300.432 26.2804 300.154 26.3177 299.874 26.3564C299.595 26.395 299.318 26.4324 299.043 26.471C298.766 26.507 298.491 26.5444 298.211 26.5804C297.936 26.6164 297.66 26.6537 297.388 26.6897C296.887 26.7164 296.543 26.2937 296.504 25.6097L296.452 22.2684C296.463 21.575 296.795 21.059 297.292 20.9497C297.568 20.9084 297.843 20.867 298.119 20.8257C298.392 20.7817 298.67 20.739 298.948 20.6977C299.223 20.6537 299.502 20.6123 299.778 20.5643C300.059 20.5203 300.336 20.4763 300.611 20.431ZM308.558 19.0257C309.084 18.959 309.454 19.383 309.496 20.1017L309.559 23.6243C309.544 24.351 309.195 24.9043 308.667 25.0297C308.379 25.0777 308.087 25.127 307.798 25.171C307.51 25.2204 307.222 25.2657 306.931 25.3124C306.646 25.359 306.355 25.4017 306.07 25.4497C305.783 25.4924 305.498 25.539 305.212 25.583C304.694 25.6244 304.332 25.1977 304.295 24.495L304.234 21.055C304.248 20.339 304.59 19.7964 305.106 19.667C305.395 19.6164 305.679 19.5644 305.964 19.5124C306.251 19.4577 306.538 19.407 306.826 19.3537C307.116 19.299 307.402 19.247 307.688 19.191C307.978 19.1377 308.27 19.0817 308.558 19.0257ZM316.803 17.2804C317.352 17.1924 317.736 17.6164 317.778 18.3657L317.85 22.031C317.838 22.7883 317.474 23.3777 316.926 23.5243C316.626 23.583 316.322 23.6457 316.022 23.703C315.72 23.7603 315.42 23.8177 315.124 23.875C314.822 23.9324 314.524 23.9897 314.226 24.0457C313.928 24.1017 313.631 24.1564 313.335 24.211C312.796 24.2737 312.42 23.843 312.38 23.1124L312.314 19.547C312.33 18.807 312.682 18.2284 313.22 18.0777C313.515 18.015 313.812 17.9497 314.111 17.8857C314.407 17.8217 314.706 17.7564 315.003 17.6884C315.302 17.6217 315.602 17.555 315.903 17.487C316.202 17.419 316.5 17.3484 316.803 17.2804Z" fill="white"/>
</svg>
