<svg width="181" height="181" viewBox="0 0 181 181" fill="none" xmlns="http://www.w3.org/2000/svg">
<g clip-path="url(#clip0_30_2)">
<g clip-path="url(#clip1_30_2)">
<path fill-rule="evenodd" clip-rule="evenodd" d="M40.9342 89.5577C67.319 78.0991 84.8838 70.4852 93.7039 66.7913C118.807 56.3128 124.084 54.5035 127.476 54.4282C128.23 54.4282 129.889 54.5789 131.02 55.4835C131.924 56.2374 132.15 57.2174 132.301 57.9713C132.452 58.7251 132.603 60.3082 132.452 61.5144C131.095 75.8376 125.215 110.59 122.2 126.572C120.918 133.357 118.43 135.618 116.018 135.844C110.741 136.297 106.746 132.377 101.695 129.06C93.7039 123.858 89.2561 120.616 81.4915 115.49C72.5206 109.61 78.3253 106.369 83.4515 101.092C84.8084 99.7347 107.952 78.6268 108.404 76.7422C108.479 76.516 108.479 75.6114 107.952 75.1591C107.424 74.7068 106.67 74.8576 106.067 75.0083C105.238 75.1591 92.5731 83.6022 67.9221 100.262C64.3036 102.75 61.0621 103.956 58.122 103.881C54.8805 103.805 48.6989 102.072 44.025 100.564C38.3711 98.7547 33.848 97.7747 34.2249 94.6085C34.4511 92.95 36.7126 91.2915 40.9342 89.5577Z" fill="white"/>
</g>
</g>
<defs>
<clipPath id="clip0_30_2">
<rect width="181" height="181" fill="white"/>
</clipPath>
<clipPath id="clip1_30_2">
<rect width="181" height="181" fill="white"/>
</clipPath>
</defs>
</svg>
