<svg width="181" height="181" viewBox="0 0 181 181" fill="none" xmlns="http://www.w3.org/2000/svg">
<path d="M146.215 62.8053C144.859 57.7622 140.878 53.7991 135.811 52.4492C126.638 50 89.8377 50 89.8377 50C89.8377 50 53.0376 50 43.8641 52.4492C38.7979 53.7991 34.8166 57.7622 33.4605 62.8053C31 71.9367 31 90.9999 31 90.9999C31 90.9999 31 110.063 33.4605 119.195C34.8166 124.238 38.7979 128.201 43.8641 129.55C53.0376 132 89.8377 132 89.8377 132C89.8377 132 126.638 132 135.811 129.55C140.878 128.201 144.859 124.238 146.215 119.195C148.676 110.063 148.676 90.9999 148.676 90.9999C148.676 90.9999 148.666 71.9367 146.215 62.8053Z" fill="white"/>
<path d="M78.0591 108.57L108.631 91.0015L78.0591 73.4327V108.57Z" fill="black"/>
</svg>
