<?xml version="1.0" encoding="iso-8859-1"?>
<!-- Uploaded to: SVG Repo, www.svgrepo.com, Generator: SVG Repo Mixer Tools -->
<svg fill="#000000" height="800px" width="800px" version="1.1" id="Layer_1" xmlns="http://www.w3.org/2000/svg" xmlns:xlink="http://www.w3.org/1999/xlink" 
	 viewBox="0 0 458.199 458.199" xml:space="preserve">
<g id="XMLID_1297_">
	<g>
		<path d="M438.008,200.825h-85.034L291.916,27.033c-3.696-10.52-15.219-16.054-25.741-12.357
			c-10.521,3.696-16.053,15.221-12.357,25.742l56.355,160.406H148.026l56.355-160.406c3.696-10.521-1.836-22.046-12.357-25.742
			c-10.518-3.697-22.045,1.837-25.741,12.357l-61.058,173.792H20.191C9.04,200.825,0,209.864,0,221.016
			c0,11.151,9.04,20.191,20.191,20.191h5.532l49.476,180.574c3.704,13.518,15.99,22.89,30.006,22.89h249.164
			c14.09,0,26.421-9.469,30.057-23.082l48.187-180.383h5.394c11.152,0.001,20.192-9.039,20.192-20.19
			S449.159,200.825,438.008,200.825z M162.941,378.667c0,11.151-9.04,20.191-20.191,20.191s-20.191-9.04-20.191-20.191V276.145
			c0-11.151,9.04-20.191,20.191-20.191s20.191,9.04,20.191,20.191V378.667z M249.29,378.667c0,11.151-9.04,20.191-20.191,20.191
			s-20.191-9.04-20.191-20.191V276.145c0-11.151,9.04-20.191,20.191-20.191s20.191,9.04,20.191,20.191V378.667z M335.639,378.667
			c0,11.151-9.04,20.191-20.191,20.191s-20.191-9.04-20.191-20.191V276.145c0-11.151,9.04-20.191,20.191-20.191
			s20.191,9.04,20.191,20.191V378.667z"/>
	</g>
</g>
</svg>